<?xml version="1.0"?>
<svg xmlns="http://www.w3.org/2000/svg" height="512px" viewBox="0 -51 512 512" width="512px"><path d="m426.667969 68.265625h-341.335938c-9.425781 0-17.066406 7.640625-17.066406 17.066406v76.671875c.074219 24.554688 10.675781 47.898438 29.117187 64.109375 18.441407 16.210938 42.949219 23.734375 67.308594 20.664063 21.496094-3.015625 41.113282-13.882813 55.066406-30.507813l24.117188-22.5625c.222656-.214843.441406-.445312.648438-.675781 2.953124-3.207031 7.113281-5.035156 11.476562-5.035156s8.523438 1.828125 11.476562 5.035156c.207032.230469.425782.460938.648438.675781l24.117188 22.570313c13.953124 16.621094 33.570312 27.488281 55.066406 30.5 24.367187 3.125 48.90625-4.382813 67.359375-20.605469s29.042969-39.597656 29.066406-64.167969v-76.671875c0-9.425781-7.640625-17.066406-17.066406-17.066406zm0 93.738281c-.027344 19.675782-8.515625 38.386719-23.296875 51.367188-14.777344 12.984375-34.425782 18.984375-53.941406 16.472656-17.441407-2.523438-33.320313-11.453125-44.542969-25.042969-.203125-.238281-.425781-.46875-.648438-.683593l-24.132812-22.585938c-6.109375-6.902344-14.886719-10.855469-24.105469-10.855469s-17.996094 3.953125-24.105469 10.855469l-24.132812 22.585938c-.222657.214843-.445313.445312-.648438.683593-11.222656 13.589844-27.101562 22.519531-44.542969 25.042969-19.515624 2.515625-39.164062-3.484375-53.945312-16.46875s-23.265625-31.695312-23.292969-51.371094v-76.671875h341.335938zm0 0" fill="#9932F5"/><path d="m495.199219 76.800781h-17.332031v-8.535156c0-18.851563-15.28125-34.132813-34.132813-34.132813h-1.09375c-5.121094-19.703124-27.519531-34.132812-55.226563-34.132812h-262.828124c-27.714844 0-50.140626 14.429688-55.226563 34.132812h-1.09375c-18.851563 0-34.132813 15.28125-34.132813 34.132813v8.535156h-17.332031c-9.273437.007813-16.7929685 7.527344-16.800781 16.800781v68.796876c.0078125 9.273437 7.527344 16.792968 16.800781 16.800781h18.714844c6.753906 46.113281 39.644531 84.125 84.308594 97.433593 1.808593 22.042969 20.191406 39.03125 42.308593 39.101563h42.667969v25.597656h-27.921875c-2.988281-5.253906-8.5625-8.507812-14.609375-8.53125h-31.460937c-7.289063-.007812-13.765625 4.65625-16.070313 11.570313l-11.484375 34.40625c-1.726562 5.167968-.855468 10.847656 2.332032 15.265625s8.304687 7.03125 13.753906 7.023437h42.929687c6.046875-.023437 11.621094-3.277344 14.609375-8.53125h27.921875v8.53125c0 4.714844 3.820313 8.535156 8.53125 8.535156h85.335938c4.710937 0 8.53125-3.820312 8.53125-8.535156v-8.53125h27.921875c2.988281 5.253906 8.5625 8.507813 14.609375 8.53125h42.929687c5.449219.003906 10.5625-2.609375 13.75-7.027344 3.1875-4.414062 4.058594-10.09375 2.335938-15.261718l-11.460938-34.40625c-2.304687-6.925782-8.792968-11.589844-16.09375-11.570313h-31.460937c-6.046875.023438-11.621094 3.277344-14.609375 8.53125h-27.921875v-25.597656h42.667969c22.117187-.070313 40.5-17.058594 42.308593-39.101563 44.660157-13.3125 77.550781-51.320312 84.308594-97.433593h18.714844c9.273437-.007813 16.792969-7.527344 16.800781-16.800781v-68.796876c-.007812-9.273437-7.527344-16.792968-16.800781-16.800781zm-370.613281-59.734375h262.828124c14.351563-.917968 28.191407 5.507813 36.753907 17.066406h-336.335938c8.5625-11.558593 22.402344-17.984374 36.753907-17.066406zm-90.453126 145.066406h-17.066406l-.265625-68.265624h17.332031zm103.605469 118.273438c5.292969.753906 10.632813 1.152344 15.980469 1.195312 17.269531.207032 34.433594-2.75 50.636719-8.730468-6.058594 10.605468-10.855469 20.207031-13.523438 25.796875h-28.699219c-11.269531-.039063-21.183593-7.460938-24.394531-18.261719zm128.851563-35.925781c.121094.144531.265625.265625.390625.410156l.054687.074219c14.089844 16.21875 25.894532 34.285156 35.085938 53.703125h-92.199219c9.191406-19.417969 20.996094-37.484375 35.085937-53.703125l.050782-.074219c.128906-.144531.273437-.265625.394531-.410156 2.570313-3.207031 6.457031-5.070313 10.566406-5.070313s8 1.863282 10.570313 5.070313zm-147.0625 139.519531 11.28125-34.132812 31.324218-.136719v34.269531zm59.671875-8.535156v-17.066406h25.601562v17.066406zm213.46875 8.535156-42.800781.136719v-34.269531l31.199218-.09375zm-59.867188-25.601562v17.066406h-25.601562v-17.066406zm-42.667969-8.53125v42.667968h-25.597656v-25.601562c0-4.714844-3.824218-8.535156-8.535156-8.535156s-8.535156 3.820312-8.535156 8.535156v25.601562h-25.597656v-76.800781h68.265624zm59.734376-51.199219h-28.699219c-2.667969-5.589844-7.464844-15.191407-13.523438-25.796875 16.203125 5.980468 33.367188 8.9375 50.636719 8.730468 5.347656-.042968 10.6875-.441406 15.980469-1.195312-3.210938 10.800781-13.125 18.222656-24.394531 18.261719zm8.414062-34.132813c-23.707031 0-56.558594-5.402344-78.636719-31.046875-.179687-.1875-.355469-.398437-.542969-.589843-.0625-.058594-.136718-.074219-.199218-.125-5.695313-6.742188-14.074219-10.632813-22.902344-10.632813s-17.207031 3.890625-22.902344 10.632813c-.0625.050781-.136718.066406-.199218.125-.1875.191406-.363282.402343-.542969.589843-22.078125 25.601563-54.929688 31.046875-78.636719 31.046875-56.59375-.074218-102.453125-45.9375-102.519531-102.53125v-93.738281c0-9.425781 7.640625-17.066406 17.066406-17.066406h375.46875c9.425781 0 17.066406 7.640625 17.066406 17.066406v93.738281c-.066406 56.59375-45.925781 102.457032-102.519531 102.53125zm119.585938-102.402344v-68.359374l17.066406-.171876.265625 68.53125zm0 0" fill="#9932F5"/><path d="m395.734375 151.730469c2.378906 1.90625 5.597656 2.398437 8.4375 1.289062s4.875-3.652343 5.332031-6.667969c.460938-3.011718-.722656-6.042968-3.105468-7.949218l-42.664063-34.132813c-3.683594-2.945312-9.054687-2.351562-12 1.332031-2.945313 3.679688-2.347656 9.050782 1.332031 11.996094zm0 0" fill="#9932F5"/><path d="m344.535156 151.730469c2.378906 1.90625 5.597656 2.398437 8.4375 1.289062s4.871094-3.652343 5.332032-6.667969c.460937-3.011718-.722657-6.042968-3.105469-7.949218l-42.664063-34.132813c-2.382812-1.90625-5.597656-2.398437-8.441406-1.289062-2.839844 1.109375-4.871094 3.652343-5.332031 6.667969-.460938 3.011718.722656 6.042968 3.105469 7.949218zm0 0" fill="#9932F5"/><path d="m93.867188 298.667969c0 4.710937-3.820313 8.53125-8.535157 8.53125-4.710937 0-8.53125-3.820313-8.53125-8.53125 0-4.714844 3.820313-8.535157 8.53125-8.535157 4.714844 0 8.535157 3.820313 8.535157 8.535157zm0 0" fill="#9932F5"/><path d="m34.132812 315.734375c0 4.710937-3.820312 8.53125-8.53125 8.53125-4.714843 0-8.535156-3.820313-8.535156-8.53125 0-4.714844 3.820313-8.535156 8.535156-8.535156 4.710938 0 8.53125 3.820312 8.53125 8.535156zm0 0" fill="#9932F5"/><path d="m68.265625 324.265625c-14.136719 0-25.597656 11.460937-25.597656 25.601563 0 14.136718 11.460937 25.597656 25.597656 25.597656 14.140625 0 25.601563-11.460938 25.601563-25.597656 0-14.140626-11.460938-25.601563-25.601563-25.601563zm0 34.132813c-4.710937 0-8.53125-3.820313-8.53125-8.53125 0-4.714844 3.820313-8.535157 8.53125-8.535157 4.714844 0 8.535156 3.820313 8.535156 8.535157 0 4.710937-3.820312 8.53125-8.535156 8.53125zm0 0" fill="#9932F5"/><path d="m435.199219 298.667969c0 4.710937-3.820313 8.53125-8.53125 8.53125-4.714844 0-8.535157-3.820313-8.535157-8.53125 0-4.714844 3.820313-8.535157 8.535157-8.535157 4.710937 0 8.53125 3.820313 8.53125 8.535157zm0 0" fill="#9932F5"/><path d="m494.933594 315.734375c0 4.710937-3.820313 8.53125-8.535156 8.53125-4.710938 0-8.53125-3.820313-8.53125-8.53125 0-4.714844 3.820312-8.535156 8.53125-8.535156 4.714843 0 8.535156 3.820312 8.535156 8.535156zm0 0" fill="#9932F5"/><path d="m443.734375 324.265625c-14.140625 0-25.601563 11.460937-25.601563 25.601563 0 14.136718 11.460938 25.597656 25.601563 25.597656 14.136719 0 25.597656-11.460938 25.597656-25.597656 0-14.140626-11.460937-25.601563-25.597656-25.601563zm0 34.132813c-4.714844 0-8.535156-3.820313-8.535156-8.53125 0-4.714844 3.820312-8.535157 8.535156-8.535157 4.710937 0 8.53125 3.820313 8.53125 8.535157 0 4.710937-3.820313 8.53125-8.53125 8.53125zm0 0" fill="#9932F5"/></svg>
