<?xml version="1.0" encoding="iso-8859-1"?>
<!-- Generator: Adobe Illustrator 22.1.0, SVG Export Plug-In . SVG Version: 6.00 Build 0)  -->
<svg xmlns="http://www.w3.org/2000/svg" xmlns:xlink="http://www.w3.org/1999/xlink" version="1.1" id="Layer_3" x="0px" y="0px" viewBox="0 0 64 64" style="enable-background:new 0 0 64 64;" xml:space="preserve" width="512px" height="512px">
<g>
	<path d="M45.8,31.4c-0.191-0.255-0.512-0.406-0.812-0.4c-0.319,0.004-0.617,0.159-0.802,0.419l-5.278,7.39L26.786,23.382   c-0.379-0.482-1.193-0.482-1.572,0L3.514,51H1v2h18.929c4.292,0,8.328,1.672,11.364,4.707C34.707,61.12,39.245,63,44.071,63H63v-2   H44.071c-3.939,0-7.652-1.423-10.585-4c2.933-2.577,6.645-4,10.585-4H63v-2h-2.5L45.8,31.4z M46,47.836V35.001L58,51h-9.514   L46,47.836z M44,35.121v10.17l-3.805-4.842L44,35.121z M6.058,51L25,26.891v24.835C23.372,51.253,21.671,51,19.929,51H6.058z    M32,55.652c-1.501-1.353-3.182-2.44-5-3.213V26.891L45.942,51h-1.871C39.565,51,35.323,52.657,32,55.652z" fill="#2E5389"/>
	<path d="M6,15c0.914,0,1.799-0.254,2.568-0.723C9.404,15.902,11.099,17,13,17s3.596-1.098,4.432-2.723   C18.201,14.746,19.086,15,20,15c2.757,0,5-2.243,5-5c0-2.444-1.763-4.484-4.084-4.916C20.484,2.763,18.444,1,16,1   c-1.327,0-2.578,0.534-3.5,1.451C11.578,1.534,10.327,1,9,1C6.44,1,4.324,2.933,4.034,5.416C2.215,6.191,1,7.981,1,10   C1,12.757,3.243,15,6,15z M5.261,7.106C5.715,6.99,6.028,6.574,6.013,6.105C6.011,6.046,6.007,5.99,6,6c0-1.654,1.346-3,3-3   c1.087,0,2.092,0.605,2.622,1.579c0.351,0.644,1.406,0.644,1.757,0C13.908,3.605,14.913,3,16,3c1.654,0,3,1.346,3,3   c0,0.552,0.448,1,1,1c1.654,0,3,1.346,3,3s-1.346,3-3,3c-0.875,0-1.71-0.397-2.289-1.089c-0.254-0.303-0.664-0.427-1.042-0.32   c-0.38,0.109-0.66,0.432-0.715,0.823C15.748,13.889,14.479,15,13,15s-2.748-1.111-2.954-2.585   c-0.055-0.392-0.335-0.714-0.715-0.823c-0.091-0.026-0.184-0.039-0.275-0.039c-0.292,0-0.574,0.128-0.767,0.358   C7.71,12.603,6.875,13,6,13c-1.654,0-3-1.346-3-3C3,8.636,3.93,7.446,5.261,7.106z" fill="#2E5389"/>
	<path d="M39.096,18.954C39.544,21.256,41.57,23,44,23c0.914,0,1.799-0.254,2.568-0.723C47.404,23.902,49.099,25,51,25   s3.596-1.098,4.432-2.723C56.201,22.746,57.086,23,58,23c2.757,0,5-2.243,5-5c0-2.444-1.763-4.484-4.084-4.916   C58.484,10.763,56.444,9,54,9c-1.327,0-2.578,0.534-3.5,1.451c-0.442-0.44-0.964-0.785-1.529-1.032C48.668,4.727,44.766,1,40,1   c-4.962,0-9,4.038-9,9C31,14.657,34.557,18.499,39.096,18.954z M49.622,12.579c0.351,0.644,1.406,0.644,1.757,0   C51.908,11.605,52.913,11,54,11c1.654,0,3,1.346,3,3c0,0.552,0.448,1,1,1c1.654,0,3,1.346,3,3s-1.346,3-3,3   c-0.875,0-1.71-0.397-2.289-1.089c-0.254-0.303-0.664-0.429-1.042-0.32c-0.38,0.109-0.66,0.432-0.715,0.823   C53.748,21.889,52.479,23,51,23s-2.748-1.111-2.954-2.585c-0.055-0.392-0.335-0.714-0.715-0.823   c-0.091-0.026-0.184-0.039-0.275-0.039c-0.292,0-0.574,0.128-0.767,0.358C45.71,20.603,44.875,21,44,21c-1.654,0-3-1.346-3-3   c0-1.364,0.93-2.554,2.261-2.894c0.455-0.116,0.767-0.532,0.752-1.001C44.011,14.046,44.005,13.993,44,14c0-1.654,1.346-3,3-3   C48.087,11,49.092,11.605,49.622,12.579z M40,3c3.522,0,6.437,2.617,6.921,6.007c-2.523,0.04-4.6,1.952-4.888,4.409   c-1.491,0.636-2.563,1.957-2.906,3.524C35.679,16.508,33,13.564,33,10C33,6.14,36.14,3,40,3z" fill="#2E5389"/>
</g>
</svg>
