<svg xmlns="http://www.w3.org/2000/svg" xmlns:xlink="http://www.w3.org/1999/xlink" viewBox="0 0 392.83 378.83"><defs><style>.cls-1{fill:none;}.cls-2{isolation:isolate;}.cls-22,.cls-23,.cls-24,.cls-3{mix-blend-mode:multiply;}.cls-4{font-size:42.29px;fill:#091b30;font-family:MartianBThai-Bold, Martian B Thai;font-weight:700;}.cls-5{letter-spacing:-0.02em;}.cls-6{letter-spacing:-0.01em;}.cls-7{letter-spacing:-0.02em;}.cls-10,.cls-8,.cls-9{fill:#ba195a;}.cls-8{letter-spacing:0em;}.cls-9{letter-spacing:-0.02em;}.cls-11{font-size:18px;font-family:MartianBThai-Regular, Martian B Thai;}.cls-12{letter-spacing:-0.01em;}.cls-13{letter-spacing:-0.01em;}.cls-14{letter-spacing:-0.02em;}.cls-15{letter-spacing:-0.04em;}.cls-16{letter-spacing:-0.02em;}.cls-17{letter-spacing:-0.02em;}.cls-18{letter-spacing:-0.01em;}.cls-19{letter-spacing:-0.01em;}.cls-20{fill:#c6c9cc;}.cls-21{clip-path:url(#clip-path);}.cls-22{fill:#2e5389;}.cls-23,.cls-25{fill:#d03893;}.cls-24{fill:#5f2d8c;opacity:0.83;}.cls-26{fill:#fff;fill-rule:evenodd;}</style><clipPath id="clip-path" transform="translate(0 -0.01)"><circle class="cls-1" cx="196.41" cy="134.05" r="134.05"/></clipPath></defs><title>Asset 2</title><g class="cls-2"><g id="Layer_2" data-name="Layer 2"><g id="Ñëîé_1" data-name="Ñëîé 1"><g class="cls-3"><text class="cls-4" transform="translate(0 338.65)">G<tspan class="cls-5" x="29.98" y="0">O</tspan><tspan x="59.08" y="0">EX</tspan><tspan class="cls-6" x="117.44" y="0">PL</tspan><tspan class="cls-7" x="169.16" y="0">O</tspan><tspan class="cls-6" x="198.25" y="0">R</tspan><tspan x="227.39" y="0">E </tspan><tspan class="cls-8" x="266.55" y="0">IN</tspan><tspan class="cls-9" x="317.04" y="0">D</tspan><tspan class="cls-10" x="346.9" y="0">IA</tspan></text></g><text class="cls-11" transform="translate(126.43 373.79)"><tspan class="cls-12">g</tspan><tspan class="cls-13" x="9.09" y="0">o</tspan><tspan class="cls-14" x="19.46" y="0">e</tspan><tspan x="29.25" y="0">x</tspan><tspan class="cls-15" x="37.46" y="0">pl</tspan><tspan class="cls-16" x="52.87" y="0">o</tspan><tspan class="cls-17" x="62.91" y="0">re</tspan><tspan x="80.55" y="0">I</tspan><tspan class="cls-18" x="85.73" y="0">n</tspan><tspan x="96.21" y="0">dia</tspan><tspan class="cls-19" x="120.96" y="0">.</tspan><tspan x="124.74" y="0">in</tspan></text></g><g id="Layer_4" data-name="Layer 4"><path class="cls-20" d="M330.46,134.06a131,131,0,0,1-1,16.42,134,134,0,0,1-266.07,0,133.79,133.79,0,0,1,.76-38.24A134.05,134.05,0,0,1,301.39,50.7c1.17,1.46,2.31,2.95,3.4,4.48.82,1.11,1.63,2.23,2.41,3.39A133.41,133.41,0,0,1,330.46,134.06Z" transform="translate(0 -0.01)"/><g class="cls-21"><path class="cls-22" d="M169.52,197.77c34.21-5.57,57.92-8,81.32-9a619.46,619.46,0,0,1,71.41,1,249.51,249.51,0,0,0-95.74-31.7C113.37,145.33,29.8,217.7,13.05,232.82A1422,1422,0,0,1,169.52,197.77Z" transform="translate(0 -0.01)"/><path class="cls-23" d="M172.15,229.53S197,224.85,315,196.64h0A289.06,289.06,0,0,0,190.5,178.73C105.63,185.42,48,228.46,26.57,246.33A1162.61,1162.61,0,0,1,172.15,229.53Z" transform="translate(0 -0.01)"/><path class="cls-24" d="M102.47,240.48c39-3.35,67.89-1.7,84.32-.93,40,1.87,99,2.82,178.47-1.93C333.42,223,264.39,196.55,174.83,204A381.18,381.18,0,0,0,13.05,255.55,558.35,558.35,0,0,1,102.47,240.48Z" transform="translate(0 -0.01)"/><path class="cls-23" d="M8.23,251.2c82.42-35,178-60.54,284.41-63q13.41-.32,26.51-.14A141.74,141.74,0,0,1,292.68,228C205.5,320,20.39,255.59,8.23,251.2Z" transform="translate(0 -0.01)"/><path class="cls-22" d="M18,259.52s193-58.73,311.06-8.78a225.21,225.21,0,0,1-55.67,18.53c-43,8.22-76.61,1.29-97.78-2.31C139.36,260.78,87.11,255.42,18,259.52Z" transform="translate(0 -0.01)"/></g><g class="cls-3"><path class="cls-25" d="M259.56,158.79c0,.16-.05.3-.08.45C259.63,159.13,259.72,159,259.56,158.79ZM228.3,91.47h0A0,0,0,0,1,228.3,91.47Z" transform="translate(0 -0.01)"/><path class="cls-25" d="M227.19,128.11a1.63,1.63,0,0,1-.07-.38A1.33,1.33,0,0,1,227.19,128.11Z" transform="translate(0 -0.01)"/><path class="cls-25" d="M228.27,91.42s0,0,0,0v0S228.27,91.41,228.27,91.42Z" transform="translate(0 -0.01)"/><path class="cls-25" d="M228.3,91.46h0s0,0,0,0Z" transform="translate(0 -0.01)"/><path class="cls-25" d="M237,86.41l0,0s0,0,0,.07Z" transform="translate(0 -0.01)"/><polygon class="cls-25" points="261.82 134.44 261.81 134.45 261.81 134.44 261.82 134.44"/></g><g class="cls-3"><path class="cls-10" d="M319.65,185.38c-.75-.14-.53-.5-.25-.94,1.17-1.79,2.16-3.62,3.36-5.5l-3.93-.7c-.34-.07-.53-.17-.49-.59a28.3,28.3,0,0,0-.19-5.89A23.86,23.86,0,0,0,313,159.63c-.17-.23-.32-.53-.66-.57-.2,1.8-.39,3.59-.6,5.44-.08-.08-.1-.09-.1-.11-.06-.37-.11-.74-.18-1.11a18.34,18.34,0,0,0-2.22-6.9,5.57,5.57,0,0,1-.69-1.77A24.57,24.57,0,0,0,302.78,142c-.32,1.34-.61,2.59-.92,3.95-.2-.94-.4-1.74-.54-2.57-.09-.56-.42-1.12-.16-1.74.08-.19-.17-.07-.24-.17s-.14,0-.19.09a1.08,1.08,0,0,1-.26.37l-2.94,2.1-.07-.06,1.88-3.34a27.74,27.74,0,0,0-6.62,1.7,33.78,33.78,0,0,0-6.57,4,1.86,1.86,0,0,1-.68.39,14.64,14.64,0,0,0-4.93,2.26c-1,.67-2,1.45-3,2.16l3.27-4.49a15.1,15.1,0,0,0-3.06.48,25.8,25.8,0,0,0-13.88,9.14c-.33.39-.54.42-1,.14-1.1-.73-2.24-1.39-3.38-2.1.17-1.61.41-4.23.82-8.57a5.18,5.18,0,0,1,.18-1.17c.07-.11.07-.29.25-.33.08-.21.43-.32.24-.65s-.35-.51,0-.77c.21-.08.56.21.6-.26.14-.25-.15-.44-.1-.67-.16-.37.5-1-.31-1.17-.26-.3,0-.65-.08-1a23.44,23.44,0,0,1,.47-4.87c.13-.11.06-.34.26-.39h0c.06-.27.34-.42.42-.69s-.12-.49-.3-.67a.88.88,0,0,1-.11-.5,3.83,3.83,0,0,1,0-1.17c.42-3.41.62-6.85,1.2-10.25a.48.48,0,0,1,.12-.22c.25-.3.1-.83.59-1a.5.5,0,0,0-.21-.67c-.16-.28,0-.55,0-.81a4.92,4.92,0,0,1,.17-1.58c.16-.2-.14-.63.35-.67,1.06.11,1.06.11,1.29-.93,0,0,.05-.07.1-.1l.34-.29c-.4-.19-.85-.08-1.25-.27a.46.46,0,0,1-.16-.07c-.28.06-.26-.16-.29-.33s-.05-.32-.09-.47c.12-1.43.28-2.87.45-4.28.08-.14.06-.32.19-.44-.24-.36-1.19,0-.88-.9,0-1.08.2-2.14.27-3.22a.27.27,0,0,0-.2-.21c-1.43,0-2.83-.31-4.26-.35-.17,0-.37.11-.5-.09,0,0-.18-.08-.06-.18,0,.19.11,0,.18,0a1.88,1.88,0,0,0,0-.75,21.7,21.7,0,0,1,.4-4.55,1.06,1.06,0,0,0,.13-.8.17.17,0,0,0,0-.14c0-.07-.06-.12-.09-.2a21.83,21.83,0,0,1,.4-3.21c0-.23-.1-.32-.32-.28-2.94-.28-5.87-.58-8.79-.94a.6.6,0,0,1-.21-.18c-.08-.46.28-.94,0-1.38a.73.73,0,0,0-.14.38V92c-.11-.21-.28-.21-.47-.13s-.11.12-.15.21a.81.81,0,0,0,0-.31.2.2,0,0,0-.19-.1,6.88,6.88,0,0,1-1.29-.1,1.12,1.12,0,0,1-.22-.1.23.23,0,0,0,.11-.08c-1.25-1.58-3.23-2.15-4.75-3.36a.46.46,0,0,1-.13-.19.92.92,0,0,0-.78-.69c-1.77-.2-3.53-.36-5.29-.57a1.47,1.47,0,0,1-.34-.15h0a9.16,9.16,0,0,1-.76,1.33.63.63,0,0,1-.5.11c-.14,0-.28-.06-.39.09a.13.13,0,0,0,.08.1c-.1.05-.12-.06-.17-.08a5.38,5.38,0,0,0-2.33.85.27.27,0,0,1-.33.13,3.34,3.34,0,0,1-2.87.49c-.1,0-.21,0-.31,0-.39-.1-.47.08-.52.44s.19.77-.32.94c-.09,0-.19.06-.24.16s-.17.23-.14.39a.9.9,0,0,1-.08-.21c-.2-.38-.59-.29-.91-.33-2.21-.26-4.42-.46-6.63-.71a4.19,4.19,0,0,1-.49-.2l-.47,0c-.22.06-.25.22-.22.42s-.07.57-.08.86a11.34,11.34,0,0,0-.14,2.54s.1.06.12.09c.1.19-.08.07-.11.07a.43.43,0,0,0-.44.43c-.17,1.66-.35,3.3-.52,4.94-.06.22.11.55-.3.59-.21.14-.38,0-.55-.08a.69.69,0,0,0-.32,0,7.46,7.46,0,0,1-2.82-.29.39.39,0,0,0-.23-.07c-.21.07-.48.32-.37.4s.19.18.17.24-.18,0-.34.19a.12.12,0,0,0,0,0A6,6,0,0,0,213,102c0,.57,0,1-.33,1.34a1.12,1.12,0,0,1-.7.23c-.33,2.57-.53,4.33-.53,4.89,0,.08,0,.44-.2.58a.51.51,0,0,1-.42,0c-.31-.07-.44.09-.44.38a2.37,2.37,0,0,0,0,.47c-.05-.17,0-.39-.21-.46s-.24,0-.27.19c-.12,1.06-.12.89.82,1,.14,0,.31,0,.4.14a.22.22,0,0,0,0,.14,6.24,6.24,0,0,1-.2,1.88.7.7,0,0,1,0,.16l.11.3c.05.2.24.44-.11.58a.18.18,0,0,0-.16,0c-.49,0-.36.53-.3.63.42.62.23,1.29.26,1.94a1.88,1.88,0,0,1,0,.78c-.31,3-.63,6.06-.95,9.09-.11.28.19.6-.07.88-.08.12.11.36-.18.38a1,1,0,0,0-.14.27c-.09-.06-.06-.18-.14-.25-.1.45-1,1,.13,1.3.25.19.08.44.05.65-.14,1.59-.34,3.17-.47,4.77,0,.21.21.43,0,.64-.06.07-.1.17-.18.22-.8,0-.4.6-.43,1a.41.41,0,0,0,.2-.26.17.17,0,0,1,0,.14.39.39,0,0,1-.25.2c-.19,0-.4-.1-.61.08.13.27.22.71.42.78.77.27.31.7.23,1.07a1.34,1.34,0,0,1,.18.76c-.54,4.59-1.06,9.19-1.44,13.8a.49.49,0,0,1-.21.41v0c-.12.15-.34.28-.19.53s.08.51.11.78a10.25,10.25,0,0,1,0,1.46c0,.24,0,.59-.35.7a.18.18,0,0,0-.05.07q8.7.22,17.65,1.13c.44-4,.85-8,1.28-12.07.49-4.5.94-9,1.44-13.53l.27-.48c0-.31.1-.62.15-.94a.51.51,0,0,0-.09-.26,1.69,1.69,0,0,1-.11-.27.81.81,0,0,1,.05-.71c0-.5.32-.95.33-1.41l.06.15a16.39,16.39,0,0,1,1.22-2.78.72.72,0,0,1,.4-.57.72.72,0,0,0,.38-.45c0-.06-.12-.14-.09-.18s.16,0,.24,0a11.34,11.34,0,0,1,2.75-2,2.16,2.16,0,0,1,.67-.25,8.15,8.15,0,0,1,2.25-.43c.18,0,.33-.11.47.11s1.82.65,2,.44c.42-.59.83-.16,1.21,0a13.3,13.3,0,0,1,1.35.57c.17,0,.25,0,.32.17a13.16,13.16,0,0,0,1.91,1.48c.32.08.59.21.43.63l.52,1a8.5,8.5,0,0,1,1.13,4.65c0,.45-.11.7-.64.56-.36-.09-.42,0-.45,0s-.06.53,0,.6c.2.72,1.06,1.09,1.39,1.23l-2.87,27.21c3.79.68,8.77,1.67,14.62,3.09l2.32.58a252.83,252.83,0,0,1,60.08,23.88l.36.19.21-.49c.22-.53.45-1.06.67-1.58a.51.51,0,0,0-.08-.4A.44.44,0,0,0,319.65,185.38Zm-92.88-54s-.06,0-.07,0,0,.13-.06.19a1.6,1.6,0,0,1,0-.23Zm.35-3.66a1.33,1.33,0,0,1,.07.38A1.63,1.63,0,0,1,227.12,127.73Zm1.13-36.33v0s0,0,0,0S228.26,91.41,228.25,91.4Zm.05.07s0,0,0,0h0s.1,0,.08,0S228.32,91.49,228.3,91.47Zm31.23,69.24c-.23-.09-.24-.24-.21-.42.05-.35.11-.7.16-1,0-.15,0-.29.08-.45.17-1.11.34-2.24.52-3.39,2.06,1.85,2.57,4.39,3.55,6.89C262.15,161.72,260.84,161.2,259.53,160.71ZM298,151.88c.23-.06.2.19.22.35A28.27,28.27,0,0,1,299.77,164c-.06,1-.12,1.9-.13,2.86.72-1.37,1.34-2.77,2.07-4.14a34.32,34.32,0,0,1,2.49-4.07,17,17,0,0,1,3.15-3.46c-.62,1.12-1.24,2.25-1.89,3.37a80.64,80.64,0,0,0-5.16,10.77,2.27,2.27,0,0,1-1.74,1c-.34-.07-.13-.35-.12-.5.05-1.89.16-3.78.22-5.68a73.52,73.52,0,0,0-.58-11.3,4.73,4.73,0,0,1,0-.52C298,152.17,297.87,151.91,298,151.88ZM269,162c-.32.34-.39-.11-.49-.25a19.16,19.16,0,0,0-4.24-4.52c-.17-.13-.32-.25-.12-.53.3-.43.46-.58.6-.53a16.77,16.77,0,0,1,2.5,2.14,23.24,23.24,0,0,1,2.13,2.78C269.74,161.67,269.19,161.79,269,162Zm1.53,2.91a36.23,36.23,0,0,1,7-4.57c1.21-.59,1.19-.59,2.08.46a37.43,37.43,0,0,1,5.61,9.83Zm13.28-.91c-.37.48-.49.36-.78-.07a1.84,1.84,0,0,1-.18-1.93,86,86,0,0,0,4.13-14.36,1.61,1.61,0,0,1,.17-.42c.44,4.8-.85,9.32-2.27,13.85,3-4,6.39-7.54,10.91-9.82.12-.11.27-.32.4-.11s-.17.24-.32.32c-1.7,1.5-3.42,3-5,4.6A101.5,101.5,0,0,0,283.77,164Zm23.73,15.35L293,173.71c.64-.3,1.26-.61,1.87-.88a32.47,32.47,0,0,1,9.54-2.7c.55-.06.74.08.94.58a38.17,38.17,0,0,1,2.18,8.2C307.54,179.05,307.63,179.21,307.5,179.37Zm3.19-1.09c0-.3-.37-.75.25-.91a17.84,17.84,0,0,1,6.29-.57c.63.07.83.38.59,1-.06.27-.27.21-.42.18a19.6,19.6,0,0,0-6.25.48C311,178.48,310.65,178.7,310.69,178.28Zm7.21,5.19c-1.08-.5-2.21-.88-3.49-1.38,2.4-1.18,4.51-2.69,7.29-2.68-.84,1.25-1.67,2.4-2.4,3.64A.91.91,0,0,1,317.9,183.47Z" transform="translate(0 -0.01)"/></g><g class="cls-3"><path class="cls-10" d="M205,145.74a.74.74,0,0,0-.21-.57c-.11-.1-.31-.11-.6-.08-2.92.33-5.84.61-8.76.93-.51.06-.68-.08-.73-.59-.14-1.65-.35-3.28-.48-4.93-.05-.53-.18-.71-.74-.63-1.19.17-2.4.23-3.6.4a.78.78,0,0,1-1-.6A7.9,7.9,0,0,0,187,136.8a12.79,12.79,0,0,0-4.56-2.72c-1.35-.53-2.44-1.09-2.2-2.8,0-.26-.07-.44-.41-.42s-.4.24-.35.53a11.22,11.22,0,0,0,.12,1.18.93.93,0,0,1-.52,1.14c-.59.33-1.11.78-1.67,1.16-2.42,1.68-4.35,3.7-4.73,6.79,0,.37-.24.41-.53.42l-2.81.29c-.39,0-.53.12-.48.57.18,1.56.29,3.13.47,4.69,0,.37.05.68-.41.61-.65-.1-1.38.61-1.95-.19,0,0,0-.05,0-.08-.18-.87-.37-1.74-.56-2.6-.78-3.82-1.55-7.64-2.36-11.45a1,1,0,0,1,.17-.93,2.21,2.21,0,0,0-.68-3.56,1.34,1.34,0,0,1-.72-.94c-.54-2.86-1.07-5.72-1.61-8.57a1.11,1.11,0,0,1,.17-.88,2,2,0,0,0-.55-3,1.42,1.42,0,0,1-.64-.91c-.34-1.53-.7-3.05-1-4.58a.88.88,0,0,1,.16-.8c.86-1.12.7-2-.5-2.74a1,1,0,0,1-.51-.72c-.31-2.12-.63-4.24-1-6.38a.92.92,0,0,1,.18-.72c.6-.83.49-1.4-.41-1.93a.94.94,0,0,1-.52-.77c-.23-1.59-.54-3.16-.75-4.74-.08-.59-.37-1.21,0-1.83a1.36,1.36,0,0,0-.77-2.12c-.21-.09-.47-.09-.61-.31l-1.1.11c0,.17-.18.24-.31.32-1.14.75-1.25,1.37-.39,2.39a1,1,0,0,1,.21.74c.05,1.82.08,3.65.16,5.47a1.31,1.31,0,0,1-.49,1.28,1.06,1.06,0,0,0,0,1.85,1.1,1.1,0,0,1,.39,1q.12,3.22.26,6.44a1.08,1.08,0,0,1-.25.78,1.53,1.53,0,0,0,0,2.31,1,1,0,0,1,.27.78c-.07,1.36-.13,2.71-.2,4.06a3.31,3.31,0,0,1-.7,2.32,1.68,1.68,0,0,0,0,2.3,2,2,0,0,1,.47,1.5q0,3.48,0,7a3.5,3.5,0,0,1-1,2.95c-1,1-.84,2.22.26,3.14a1.28,1.28,0,0,1,.48,1.14q-.13,7.05-.25,14.11c0,.49-.2.6-.64.64-1.86.17-3.71.39-5.55.56a.68.68,0,0,0-.51.18.62.62,0,0,0-.08.52c.1.51.33,3,.62,6.43l-1.33.55-7.65-16.87-2.78-5.91a1.8,1.8,0,0,0-.46-.89,2.34,2.34,0,0,0-1.26-.44c-.54-1.13-1-1.93-1.12-1.88a5.22,5.22,0,0,0,.56,2.1,2.18,2.18,0,0,0-.58,1.23,1.6,1.6,0,0,0,.31.94l8.62,23a.53.53,0,0,1-.29.68l-3.36,1.39a.52.52,0,0,1-.69-.27l-7.54-16.59a3,3,0,0,0-.5-.87,1.43,1.43,0,0,0-.82-.32,7.88,7.88,0,0,0-1.28-2.3,6.25,6.25,0,0,0,.69,2.49,1.66,1.66,0,0,0-.43.88,3.47,3.47,0,0,0,.27,1l6.66,17.51a10.82,10.82,0,0,1-1,.55,13.22,13.22,0,0,1-2.32.9.54.54,0,0,1-.63-.32l-5-11.95-.33.1-.78-1.86a.54.54,0,0,0-.71-.28l-1.32.55a.54.54,0,0,0-.29.7l.45,1.1a.54.54,0,0,1-.29.71l-1.71.7-.25.11-1.5-3.61-.76.32a2.86,2.86,0,0,0-1.3-1.32,5.78,5.78,0,0,0-2-.57.58.58,0,0,1-.45-.32c-.63-1.42-1.23-2.44-1.42-2.37s.12,1.22.67,2.65a.52.52,0,0,1-.09.54,6.11,6.11,0,0,0-1.1,1.91,4,4,0,0,0-.1.53l-.25-.61-1,.41c2-5,.58-7.66.19-8.27-1.21-1.95-4-2.92-9.5-4.77-1.86-.64-3.43-1.08-4.51-1.38l-.08,0c-.13-.39-.29-.81-.47-1.25a8.73,8.73,0,0,0-1.69-2.93v0s-.1-.08-.13-.07h0s0,.09,0,.14v0a8.37,8.37,0,0,0,.9,3.25c.18.43.36.84.55,1.22l-.08,0a14.86,14.86,0,0,1-2.1,4.26c-1.85,3-4.28,6.41-3.41,10s5.5,5.53,6,5.7l-1,.42.26.62a5,5,0,0,0-.45-.3,5.8,5.8,0,0,0-2.13-.57.53.53,0,0,1-.44-.31c-.62-1.41-1.24-2.43-1.42-2.35s.13,1.24.68,2.69a.54.54,0,0,1-.08.53,5.88,5.88,0,0,0-1,1.85,2.94,2.94,0,0,0,0,1.86l-.76.32,1.28,3.07a.54.54,0,0,1-.28.69l-1.46.64a.52.52,0,0,1-.71-.28l-.46-1.1a.53.53,0,0,0-.7-.28l-1.33.55a.54.54,0,0,0-.3.7l.78,1.86-.3.17,5.15,12.38c-.4.23-.85.47-1.33.69a15.07,15.07,0,0,1-2,.75.55.55,0,0,1-.64-.3q-3.77-8.31-7.54-16.64a3.4,3.4,0,0,0-.5-.88,1.21,1.21,0,0,0-.68-.29.5.5,0,0,1-.37-.31c-.55-1.19-1-2-1.15-2a6.66,6.66,0,0,0,.73,2.52,1.41,1.41,0,0,0-.37.82,3.16,3.16,0,0,0,.27,1l6.46,17a.54.54,0,0,1-.29.69l-3.35,1.39a.54.54,0,0,1-.7-.27L68.87,162.72a1.62,1.62,0,0,0-.45-.89,2.3,2.3,0,0,0-1.28-.44c-.53-1.14-1-1.92-1.1-1.87s.12.92.57,2.11a2.24,2.24,0,0,0-.6,1.21,1.51,1.51,0,0,0,.31.94l2.23,6.15,6.59,17.31-1.5.73.8,1.77a283.68,283.68,0,0,1,30.87-14.44,292.16,292.16,0,0,1,41.26-12.79l1.34-.29A238.62,238.62,0,0,1,206,156.65C205.37,150.61,205,146.34,205,145.74Zm-92.71,25.94c-.91.33-1.86.7-2.82,1.12-.68.28-1.33.57-2,.86a.52.52,0,0,1-.72-.27l-2.35-5.65a3.55,3.55,0,0,1,.29-3.19,3,3,0,0,1,1.29-1.24,3.08,3.08,0,0,1,1.79-.05,3.59,3.59,0,0,1,2.46,2.05c.31.92.66,1.89,1.08,2.9s.81,1.89,1.22,2.74A.52.52,0,0,1,112.25,171.68Zm44.27-14.39c-.73.12-1,0-1-.83s-.17-1.5-.2-2.26c0-.6.1-1.18.84-1.3.54-.08,1,.43,1.13,1.16.07.44.1.88.14,1.32l.07.7C157.57,157.16,157.57,157.12,156.52,157.29Zm15.59-1.07c-.31,0-.37-.15-.4-.42-.1-1.09-.23-2.18-.35-3.27,0-.1,0-.21,0-.31,0-1,.46-1.59,1.13-1.62s1.25.56,1.37,1.51c.06.54.11,1.09.17,1.63l.06.55C174.25,156.09,174,156.34,172.11,156.22Zm5.39-.86c-.08.72-1.35.35-2.06.5-.43.09-.38-.3-.41-.58-.06-.57-.12-1.15-.17-1.71h0c-.06-.62-.16-1.25-.18-1.87a1.21,1.21,0,0,1,1-1.41,1.14,1.14,0,0,1,1.36.91A10.44,10.44,0,0,1,177.5,155.36Zm7.23.62c-1.46.14-2.92.28-4.37.46-.52.07-.61-.12-.65-.57-.06-1-.18-1.93-.28-2.89a15.61,15.61,0,0,1-.21-3.74,2.55,2.55,0,0,1,4.94-.76,4.1,4.1,0,0,1,.49,1.4c.2,1.84.37,3.7.58,5.54C185.29,155.86,185.11,156,184.73,156Zm4.66-1.53c-.33,0-.47-.07-.5-.41-.11-1.19-.26-2.38-.35-3.58-.06-.94.42-1.59,1.1-1.64s1.26.54,1.39,1.43c.08.57.12,1.13.18,1.71,0,.15,0,.31,0,.46C191.47,154.44,191.47,154.43,189.39,154.45Zm5.37-.88c-.45.76-1.25.3-1.87.49-.25.08-.56.15-.61-.32-.13-1.19-.29-2.38-.42-3.56a1.69,1.69,0,0,1,.06-.55c.12-.61.39-1.11,1.08-1.15a1.25,1.25,0,0,1,1.25,1,10.54,10.54,0,0,1,.25,2.17l.21,1.39C194.73,153.21,194.83,153.44,194.76,153.57Z" transform="translate(0 -0.01)"/></g><path class="cls-26" d="M197.44,196.37c-.21-.14-1.93-1.19-2.61-1.74a19.52,19.52,0,0,0-2.72-1.28c-.47-.33-.48-1.13-.18-1.86a11.77,11.77,0,0,0,1-2.42,23.09,23.09,0,0,0,.79-4.19c.1-1.85,0-13.53.38-15.46s1.12-3.4,1.2-4.95-.22-7.67-.16-8.43-.65-.27-.76-2.18-1.09-3.26-1.31-4.41-.65-4.24-2.34-5.06-6.67-1.09-9.77-.65-12.73,2.45-15.12,1.9a4.94,4.94,0,0,1-4.09-4.89c.11-2.4,3.21-6,11.38-9.44s13.19-6.4,13.74-7.21,1.12-2.16,1.88-3.46,1.49-2.09,1.71-4a15.25,15.25,0,0,0-1.14-7.68c-1.31-3.26-2.25-7.26-2.67-8.58A49.43,49.43,0,0,1,184.8,95c-.91-3.36-.14-16.24.62-18.94s4.19-6.26,5.83-8.71,3.37-5,4-6.88,1.09-7.24,2.09-7.21,1.26,4.9,1.69,6.56a11.36,11.36,0,0,0,1.36,3.81c.82,1.25,8.25,8.62,9.2,10.82s1.25,17.91.92,20.25-1.09,7-1.17,7.67a32.54,32.54,0,0,1-.88,4.08,47.57,47.57,0,0,0-1.78,9c-.11,2.83,2.6,8.06,2.61,14.42s-3.27,14.94-4.57,19.4-2.51,8.16-2.51,11.48-.13,8.79-.89,11.56-3.68,11.84-3.9,13.58-.67,4.76-.4,5.09a37,37,0,0,1,3.39,4c.38.82-1.17,2.58-2.94,1.46Zm-.39-120.58a5.15,5.15,0,0,1,5.07,2.91c.57,1.06.28,4.6.36,4.68a1.24,1.24,0,0,1,.44,1,1.91,1.91,0,0,1-.42,1.18,6.73,6.73,0,0,1-1.1,2.3c-1,1.58-1.16,1.6-1.1,3.56s2.35,2.83,2.84,2.83.8-1.07,1.33-1.79.95-1.23,1.28-1.66c.17-.22-.41-3.81-.49-7.39a57.93,57.93,0,0,1,.33-7s-1.54-2.19-3.22-4.86-2.52-4.32-3.12-5.3a25.06,25.06,0,0,0-2-2.61,17.38,17.38,0,0,0-1.94,2.34c-.6,1-1.51,3.89-3.2,6.56s-2.92,4.26-2.92,4.26.2,3.58.22,7.14-.36,7.3-.19,7.52a6.66,6.66,0,0,1,.73,1c.49.8.8,1.77,1.29,1.77s3-.83,3.09-2.79-.32-2-1.35-3.61S192.1,86.25,192,86a4,4,0,0,1-.6-1.67,1.13,1.13,0,0,1,.38-.92c.08-.08-.14-3.67.43-4.73a4.77,4.77,0,0,1,4.84-2.91Zm-1.29,59.08c.71,1.09.44,3.48.06,3.7s-10.56.76-9.25-.11-.6-1.2,9.19-3.59Z" transform="translate(0 -0.01)"/><path class="cls-26" d="M179.58,86.62S161.3,72.08,145,73.78,110.29,86.7,110.29,86.7s22.36-11,34.6-10.8,34.69,14.8,34.69,14.8V86.62Zm-4.89,2.47s-4.58-2.06-7.49-.35-2.5,4.69-5.7,7.73c3.08.56,5.61.86,8.95-.43s5.33-5.87,4.94-6.18a2.77,2.77,0,0,0-3.2.31c-1.14,1.08-1.25,1.46-2.21,2.22a16.77,16.77,0,0,1-3.44,1.76,15.14,15.14,0,0,0,3.37-2c1.28-1.12,1.39-1.75,2.07-2.29s.87-.81,2.71-.81ZM162.22,83.4s-.9,3.63-3.53,5.19-4.29.82-8.1,2c.9-2.69,1.77-4.82,4.26-6.9s7-1.64,7.07-1.2a2.54,2.54,0,0,1-1.66,2.4,27.63,27.63,0,0,0-2.73.77,15.83,15.83,0,0,0-2.9,1.95,14.11,14.11,0,0,1,3-1.8c1.44-.53,2-.33,2.72-.64s1-.33,1.83-1.79ZM150.4,78.35s-.06,4.15-2.37,5.74-4.39.22-7.78,1.55a12.23,12.23,0,0,1,3.45-6.55c2.14-2,6.27-1.93,6.37-1.53a2.3,2.3,0,0,1-1.36,2.29,25.74,25.74,0,0,0-2.43.87,13.87,13.87,0,0,0-2.53,2,12.93,12.93,0,0,1,2.65-1.84c1.29-.56,1.8-.42,2.44-.75s.91-.36,1.56-1.74Zm-13.17,0a6.71,6.71,0,0,1-1.34,4.31c-1.49,1.61-2.78,1.45-5.15,3.07a9.71,9.71,0,0,1,1.5-5.63c1.27-2,4.46-2.58,4.6-2.29a1.79,1.79,0,0,1-.64,2,20,20,0,0,0-1.71,1.1,11.45,11.45,0,0,0-1.59,1.94A10.31,10.31,0,0,1,134.61,81c.89-.66,1.3-.64,1.74-1s.63-.43.88-1.61Zm-12.73,3.9s-2.31.11-3.16,1.41,0,2.45-.73,4.37a6.83,6.83,0,0,0,3.59-2,4.06,4.06,0,0,0,.75-3.57,1.28,1.28,0,0,0-1.25.8c-.25.68-.21.85-.45,1.37a8.06,8.06,0,0,1-1,1.44,6.73,6.73,0,0,0,1-1.51c.29-.73.21-1,.38-1.37s.18-.52.94-.9Zm-7.19-.65s-.78-2.23-2.31-2.67-2.41.66-4.48.56a7,7,0,0,0,3,2.91c1.53.73,3.73-.08,3.72-.32a1.32,1.32,0,0,0-1.15-1,13.39,13.39,0,0,1-1.47,0,8.42,8.42,0,0,1-1.72-.6,7.52,7.52,0,0,0,1.76.51c.8.08,1-.09,1.46,0s.55,0,1.15.66Zm12.27-5.69s-1.06-3-3.12-3.62-3.27.9-6.07.76a9.5,9.5,0,0,0,4.12,4c2.06,1,5-.12,5-.44A1.8,1.8,0,0,0,128,75.23c-1,0-1.22.07-2,0a10.73,10.73,0,0,1-2.32-.82,9.59,9.59,0,0,0,2.38.7c1.08.1,1.42-.13,2,0s.75,0,1.56.9Zm5.21-10.7s1.62-1.66,1.34-3.19-1.64-1.82-2.45-3.69a6.88,6.88,0,0,0-1.23,3.94c0,1.66,1.7,3.24,1.9,3.12a1.27,1.27,0,0,0,.37-1.44c-.29-.66-.44-.76-.62-1.3a7.56,7.56,0,0,1-.21-1.77,7,7,0,0,0,.31,1.77c.29.73.54.88.67,1.26s.21.5-.08,1.3Zm-6.29-4.67s.79-1.82.11-2.95-1.85-1-3.06-2.22a5.86,5.86,0,0,0,.2,3.52,3.47,3.47,0,0,0,2.45,1.92,1.1,1.1,0,0,0-.13-1.26,10.46,10.46,0,0,1-.88-.86,6.32,6.32,0,0,1-.71-1.34,6.11,6.11,0,0,0,.79,1.32c.44.49.69.53.9.8s.32.34.33,1.07Zm3.42,6.33s-1.74-2.33-3.7-2.28-2.58,1.67-5,2.32a8.58,8.58,0,0,0,4.65,2.29c2.06.29,4.35-1.48,4.24-1.75a1.62,1.62,0,0,0-1.71-.73c-.88.22-1,.39-1.74.5a9.76,9.76,0,0,1-2.24-.07,8.74,8.74,0,0,0,2.26,0c1-.21,1.19-.5,1.69-.58s.67-.17,1.6.35ZM147.5,71s.28-3.91-1.75-5.59-4.1-.57-7.18-2.1a11.56,11.56,0,0,0,2.7,6.44c1.84,2.1,5.73,2.33,5.86,2A2.17,2.17,0,0,0,146,69.49c-1.1-.54-1.4-.52-2.22-1a13.66,13.66,0,0,1-2.21-2A12.25,12.25,0,0,0,144,68.36c1.17.64,1.66.55,2.23.91s.83.41,1.32,1.77ZM163,76.44s-3.48-.48-5.19-2.77-1.19-3.91-2.68-7.34c2.59.58,4.66,1.17,6.84,3.28s2.23,6.34,1.82,6.46a2.36,2.36,0,0,1-2.39-1.3,26.49,26.49,0,0,0-1-2.46,14.32,14.32,0,0,0-2.11-2.51,13.17,13.17,0,0,1,2,2.64c.64,1.3.51,1.83.87,2.47s.41.92,1.85,1.53Zm14.24,5.46s-4.91-1.21-7-4.75-1.11-5.78-2.74-10.92c3.63,1.22,6.5,2.38,9.31,5.73s2.24,9.42,1.64,9.53a3.41,3.41,0,0,1-3.24-2.23,37,37,0,0,0-1-3.67,20.45,20.45,0,0,0-2.64-3.91A18.36,18.36,0,0,1,174,75.77c.71,2,.45,2.68.86,3.66s.45,1.38,2.43,2.47ZM148.84,54.06s-1.14-3.75-3.63-4.59-4,.93-7.46.6a11.58,11.58,0,0,0,4.82,5c2.47,1.3,6.19.13,6.17-.26a2.18,2.18,0,0,0-1.82-1.73,22.46,22.46,0,0,1-2.44-.16,12.73,12.73,0,0,1-2.79-1.12,11.85,11.85,0,0,0,2.88,1c1.31.18,1.74-.08,2.4.05s.92.09,1.87,1.18Zm9.56,8.42s-3,2.56-6.16,2.31-4.16-1.89-8.14-3.16c2.39-1.75,4.42-3.05,7.8-3.33s7,2.81,6.77,3.24a2.63,2.63,0,0,1-2.86,1.05,29.28,29.28,0,0,0-2.8-1,16.08,16.08,0,0,0-3.66-.09,14.74,14.74,0,0,1,3.69.29c1.55.43,1.9.92,2.71,1.1s1.07.33,2.65-.43Zm2-6.4s-3.89.51-6.41-1.47-2.43-3.87-5-7.13c3-.14,5.37-.1,8.35,1.54s4.25,6.19,3.85,6.44a2.65,2.65,0,0,1-3-.71,28,28,0,0,0-1.79-2.36,15.43,15.43,0,0,0-3-2.09,14.09,14.09,0,0,1,2.91,2.27c1.06,1.21,1.08,1.82,1.66,2.41s.71.87,2.44,1.1ZM147,39s-1.94-.89-3.18-.17-1.08,2-2.44,3.27a6.37,6.37,0,0,0,3.8-.16,3.71,3.71,0,0,0,2.11-2.62,1.18,1.18,0,0,0-1.36.13c-.48.45-.53.62-.94.94a6.72,6.72,0,0,1-1.46.73,6.6,6.6,0,0,0,1.43-.82c.55-.47.59-.74.89-1S146.23,39,147,39Zm12.34.7s-2.65-1.21-4.34-.23-1.47,2.7-3.33,4.45a8.66,8.66,0,0,0,5.19-.21c1.93-.74,3.1-3.39,2.88-3.57a1.63,1.63,0,0,0-1.86.17c-.66.62-.72.84-1.28,1.28a10,10,0,0,1-2,1,8.79,8.79,0,0,0,2-1.13c.74-.64.81-1,1.21-1.32s.5-.46,1.57-.45Zm11.52,7.44s-2.15-3.28-4.78-3.38-3.6,2-7,2.7a11.65,11.65,0,0,0,6.06,3.47c2.74.55,6-1.63,5.84-2a2.16,2.16,0,0,0-2.24-1.13c-1.2.23-1.43.43-2.38.53a13,13,0,0,1-3-.28,11.84,11.84,0,0,0,3,.12c1.31-.2,1.65-.57,2.32-.64s.91-.17,2.12.61Zm-2.33-15.66a5.44,5.44,0,0,1-1.49-3.36c0-1.79.91-2.39,1.49-4.66a7.89,7.89,0,0,1,2.12,4.25c.27,1.88-1.34,4-1.58,3.89a1.47,1.47,0,0,1-.69-1.56,15.62,15.62,0,0,0,.46-1.6,9.23,9.23,0,0,0-.07-2,8,8,0,0,1,0,2.06c-.19.89-.45,1.1-.52,1.55s-.15.61.32,1.47ZM159,35.15s.53-3.62-1.24-5.31S154,29,151.24,27.41a10.78,10.78,0,0,0,2.08,6.16c1.56,2.07,5.16,2.54,5.3,2.21a2,2,0,0,0-.86-2.17c-1-.58-1.27-.58-2-1.1a12.34,12.34,0,0,1-1.91-2,10.64,10.64,0,0,0,2,2c1,.67,1.5.62,2,1s.74.45,1.1,1.74Zm24.56.11s-3.85-.9-5.53-3.65-.93-4.51-2.24-8.51c2.84.91,5.1,1.8,7.33,4.39s1.84,7.35,1.37,7.44A2.66,2.66,0,0,1,182,33.22a29.59,29.59,0,0,0-.86-2.87,16.22,16.22,0,0,0-2.1-3,14.29,14.29,0,0,1,1.95,3.17c.58,1.52.38,2.1.71,2.86s.37,1.08,1.92,1.91Zm-3.83,13s2.92-2.18,2.87-4.63-2.09-3.24-2.89-6.34a10.7,10.7,0,0,0-2.89,5.82c-.36,2.57,1.84,5.45,2.18,5.32a2,2,0,0,0,.93-2.15,20.55,20.55,0,0,1-.63-2.18,12,12,0,0,1,.1-2.8,11.23,11.23,0,0,0,.05,2.83c.26,1.21.63,1.5.72,2.12s.21.83-.44,2Zm5.77,7.51s3.87-.66,5-3-.42-4.12.33-7.48a11.69,11.69,0,0,0-5.6,4.16c-1.61,2.29-.91,6.12-.52,6.16a2.19,2.19,0,0,0,1.94-1.6,24.07,24.07,0,0,1,.46-2.4A13.33,13.33,0,0,1,188.59,49a12.52,12.52,0,0,0-1.32,2.74c-.35,1.28-.14,1.73-.35,2.38s-.21.9-1.41,1.7Zm-7.38,8.5s-4.24,2.14-7.91.89-4.33-3.44-8.63-6.12c3.33-1.35,6.09-2.28,10.15-1.6s7.36,5.37,7,5.81a3.21,3.21,0,0,1-3.68.39,34.14,34.14,0,0,0-3-2,20.22,20.22,0,0,0-4.28-1.18A17.78,17.78,0,0,1,172,61.94c1.7,1,2,1.65,2.86,2.09s1.16.71,3.23.28ZM215,45.59a4.17,4.17,0,0,1,2.37-1.53c1.36-.19,1.92.41,3.71.58a6.14,6.14,0,0,1-3,2.11A3.56,3.56,0,0,1,215,46a1.12,1.12,0,0,1,1.1-.7,12.54,12.54,0,0,0,1.27.15,6.24,6.24,0,0,0,1.54-.3,5.73,5.73,0,0,1-1.57.22c-.69,0-.89-.21-1.24-.21s-.48,0-1.07.42Zm-6.09,9a5.43,5.43,0,0,1,3.09-2c1.77-.24,2.5.54,4.82.76A7.91,7.91,0,0,1,213,56.06c-1.81.55-4.14-.71-4.08-1a1.47,1.47,0,0,1,1.44-.91,15.38,15.38,0,0,0,1.64.2,8.2,8.2,0,0,0,2-.39,7.77,7.77,0,0,1-2,.28c-.91,0-1.16-.27-1.62-.27s-.62-.06-1.39.55Zm-11.82-31a5.44,5.44,0,0,1-1.49-3.36c0-1.79.91-2.39,1.49-4.65a7.82,7.82,0,0,1,2.12,4.25c.27,1.88-1.34,4-1.58,3.89a1.5,1.5,0,0,1-.69-1.57,14.83,14.83,0,0,0,.46-1.59,8.67,8.67,0,0,0-.07-2,8,8,0,0,1,0,2.07c-.19.88-.45,1.09-.52,1.55s-.15.61.32,1.46Zm5.41,8.49s-1.64-2.68-1-5.17,2-3,3.57-6a11.27,11.27,0,0,1,1.6,6.61c-.22,2.71-3.13,5.14-3.44,4.92a2.12,2.12,0,0,1-.46-2.4,22.52,22.52,0,0,0,1.15-2.08,13,13,0,0,0,.54-2.88,11.83,11.83,0,0,1-.71,2.87c-.54,1.18-1,1.39-1.22,2s-.4.81,0,2.15Zm-10.76,4.69s-4-2.2-5-5.77.38-5.29.16-10.13c2.87,1.9,5.1,3.58,6.76,7.15s-.25,8.72-.8,8.67A3,3,0,0,1,190.61,34c-.08-1.72.12-2.11-.06-3.44a18.25,18.25,0,0,0-1.38-4,16.78,16.78,0,0,1,1.17,4.12c.16,1.86-.23,2.44-.1,3.39s.07,1.3,1.53,2.71Zm30.3-5.39a5.47,5.47,0,0,1,.52-3.64c1-1.49,2-1.53,3.74-3.14a7.78,7.78,0,0,1-.47,4.72c-.77,1.74-3.25,2.67-3.41,2.45a1.47,1.47,0,0,1,.26-1.68c.6-.58.8-.62,1.23-1.11a8.73,8.73,0,0,0,1-1.78,8.5,8.5,0,0,1-1.13,1.74c-.63.64-1,.68-1.27,1s-.45.44-.5,1.41Zm-8.29,6.7s-2-2.41-1.77-5,1.57-3.31,2.65-6.48a11.32,11.32,0,0,1,2.56,6.3c.17,2.71-2.35,5.54-2.69,5.38a2.11,2.11,0,0,1-.8-2.31c.38-1.13.6-1.32.82-2.23a12.93,12.93,0,0,0,.12-2.93,11.71,11.71,0,0,1-.28,2.95c-.36,1.24-.77,1.51-.92,2.16s-.28.85.31,2.12ZM208,47.15s2.53-3,1.87-5.55-3-2.88-4.58-5.92a11.56,11.56,0,0,0-1.59,6.8c.25,2.78,3.26,5.25,3.58,5a2.16,2.16,0,0,0,.45-2.47c-.57-1.08-.83-1.24-1.2-2.12a13.46,13.46,0,0,1-.58-3,12.14,12.14,0,0,0,.75,2.95c.57,1.2,1,1.41,1.28,2s.42.82,0,2.21Zm26,4.69s-1.72-3.52-.65-6.54,2.89-3.53,5.15-7c1.07,2.76,1.81,5.06,1.21,8.4s-4.51,6-4.88,5.7a2.62,2.62,0,0,1-.27-3c.8-1.25,1.13-1.42,1.67-2.45a16.25,16.25,0,0,0,1-3.52,14.68,14.68,0,0,1-1.23,3.49c-.81,1.39-1.38,1.6-1.75,2.34s-.6,1-.27,2.66Zm-8.86-11.92s3.46,1.14,5.44-.31,1.44-3.58,3.52-6a10.87,10.87,0,0,0-6.43,1c-2.31,1.19-3.4,4.65-3.09,4.85a2,2,0,0,0,2.29-.48,21.34,21.34,0,0,1,1.42-1.77,12.39,12.39,0,0,1,2.34-1.53,11.46,11.46,0,0,0-2.28,1.67c-.84.91-.86,1.37-1.32,1.81s-.56.65-1.89.79Zm-1.7,18.44s4-3,3.95-6.38-2.88-4.46-4-8.73c-2,2.42-3.48,4.47-4,8s2.54,7.51,3,7.33a2.77,2.77,0,0,0,1.28-3,29.44,29.44,0,0,1-.86-3,16.78,16.78,0,0,1,.13-3.86,15.2,15.2,0,0,0,.08,3.9c.36,1.66.86,2.06,1,2.92s.29,1.15-.61,2.76ZM213.08,74.87s-3.4-3.73-3.19-7.84,2.29-5.43,3.8-10.6c2.33,3,4.08,5.59,4.55,9.94s-3.38,9.07-3.94,8.83a3.39,3.39,0,0,1-1.45-3.65A36,36,0,0,0,214,67.91a20,20,0,0,0,0-4.71,18.25,18.25,0,0,1-.24,4.75c-.5,2-1.12,2.49-1.32,3.53s-.39,1.39.64,3.39Zm13.54-4.72s-2.09-4-.94-7.57,3.25-4.18,5.76-8.33c1.33,3.17,2.25,5.81,1.65,9.7s-5.05,7.11-5.48,6.77a3.07,3.07,0,0,1-.42-3.52,31.54,31.54,0,0,0,1.87-2.89,18.65,18.65,0,0,0,1.08-4.1,17.08,17.08,0,0,1-1.32,4.08c-.9,1.64-1.55,1.9-2,2.76s-.66,1.12-.23,3.1Zm-4,19.07s2.68-2.85,5.87-2.93,4.33,1.45,8.41,2.3c-2.19,2-4.07,3.49-7.4,4.11s-7.21-2.07-7.06-2.52a2.65,2.65,0,0,1,2.74-1.34,27.51,27.51,0,0,0,2.87.69,15.87,15.87,0,0,0,3.65-.3,14.42,14.42,0,0,1-3.69.1c-1.59-.26-2-.72-2.81-.81s-1.09-.22-2.58.7Zm45.17-16.35a4.19,4.19,0,0,1,2.82-.43c1.33.39,1.6,1.17,3.18,2.07a6.18,6.18,0,0,1-3.62.72,3.67,3.67,0,0,1-2.59-2,1.17,1.17,0,0,1,1.32-.19c.56.32.64.46,1.1.67a6.41,6.41,0,0,0,1.54.36,6.37,6.37,0,0,1-1.54-.45c-.62-.32-.72-.56-1.05-.71s-.43-.24-1.16,0Zm-16.23,1.35a7.13,7.13,0,0,1,4.74-.72c2.23.66,2.68,2,5.33,3.49a10.36,10.36,0,0,1-6.07,1.19c-2.46-.31-4.55-3.06-4.34-3.33a1.9,1.9,0,0,1,2.2-.32,20.79,20.79,0,0,0,1.84,1.12,11.43,11.43,0,0,0,2.6.62,10.93,10.93,0,0,1-2.58-.76c-1.05-.54-1.22-1-1.77-1.2s-.72-.4-1.95-.09Zm-2-16.65a5.47,5.47,0,0,1,3.09-2c1.78-.24,2.5.54,4.83.76a7.85,7.85,0,0,1-3.87,2.75c-1.82.55-4.14-.71-4.09-1A1.49,1.49,0,0,1,251,57.2a15.38,15.38,0,0,0,1.64.2,8.2,8.2,0,0,0,2-.39,8.19,8.19,0,0,1-2.05.29c-.9,0-1.15-.28-1.61-.28s-.62-.06-1.4.55Zm1.75-5.29a5.47,5.47,0,0,1,.52-3.64c1-1.49,2-1.53,3.74-3.14a7.85,7.85,0,0,1-.46,4.72c-.78,1.74-3.26,2.67-3.42,2.45A1.48,1.48,0,0,1,252,51c.6-.58.81-.62,1.23-1.11a8.73,8.73,0,0,0,1-1.78,8.06,8.06,0,0,1-1.13,1.74c-.63.64-1,.68-1.27,1s-.45.44-.5,1.41Zm-7.66,16.8S244,66,245.93,64.3s3.44-1.26,6.43-2.77a11.33,11.33,0,0,1-2.59,6.29c-1.77,2.06-5.56,2.31-5.68,2a2.11,2.11,0,0,1,1-2.21,21.33,21.33,0,0,0,2.15-1,13.34,13.34,0,0,0,2.14-2,11.55,11.55,0,0,1-2.27,1.91c-1.12.63-1.6.54-2.16.9s-.8.41-1.27,1.73ZM235,73.47s3.87-.66,5-3-.42-4.12.33-7.47a11.56,11.56,0,0,0-5.6,4.16c-1.61,2.28-.9,6.11-.52,6.15a2.18,2.18,0,0,0,1.94-1.6,23.82,23.82,0,0,1,.46-2.39,12.36,12.36,0,0,1,1.47-2.63,11.58,11.58,0,0,0-1.33,2.73c-.35,1.28-.14,1.74-.35,2.38s-.21.9-1.41,1.7Zm6.47-11.72s2.92-2.18,2.87-4.63-2.1-3.24-2.9-6.34a10.76,10.76,0,0,0-2.88,5.82c-.36,2.57,1.84,5.45,2.18,5.32a2.05,2.05,0,0,0,.93-2.15,20.55,20.55,0,0,1-.63-2.18,11.45,11.45,0,0,1,.1-2.8,10.75,10.75,0,0,0,0,2.83c.26,1.21.62,1.5.72,2.12s.21.83-.44,2Zm15.19,7.13S259.36,70,261,69s1.35-2.76,3.15-4.58a8.59,8.59,0,0,0-5.17.41c-1.91.81-3,3.5-2.75,3.67a1.6,1.6,0,0,0,1.85-.24,15.23,15.23,0,0,1,1.24-1.32,10,10,0,0,1,2-1.09,9.29,9.29,0,0,0-1.91,1.2c-.72.67-.77,1-1.16,1.37s-.48.48-1.55.51ZM236,80.7s1.42,3.36,3.81,3.89,3.65-1.25,6.85-1.29a10.75,10.75,0,0,0-5-4.19c-2.41-1-5.73.48-5.68.84a2,2,0,0,0,1.86,1.42,21.36,21.36,0,0,1,2.27-.09,12.18,12.18,0,0,1,2.69.76,11.15,11.15,0,0,0-2.76-.62c-1.23,0-1.6.25-2.23.19s-.86,0-1.84-.91ZM195.15,47.9S192.89,43.72,194,40s3.33-4.42,5.88-8.8c1.44,3.29,2.45,6,1.89,10.11s-5.16,7.5-5.61,7.16a3.19,3.19,0,0,1-.49-3.67,35.17,35.17,0,0,0,1.89-3.05,19.23,19.23,0,0,0,1.06-4.3,17.73,17.73,0,0,1-1.3,4.28c-.92,1.72-1.59,2-2,2.92s-.68,1.18-.19,3.24ZM218.44,84s-2.67-3.8-1.63-6.74,3.82-3.09,6-6.52c1,2.7,1.76,4.94,1.17,8.19s-4.39,5.86-4.75,5.57a2.58,2.58,0,0,1-.27-3c.78-1.22,1.11-1.39,1.63-2.39a15.55,15.55,0,0,0,1-3.43,13.9,13.9,0,0,1-1.19,3.4c-.79,1.36-1.34,1.56-1.71,2.28s-.58.93-.26,2.6Zm-56-58.5a14.53,14.53,0,0,1,4.25,4.94,15.79,15.79,0,0,1,1.79,5.52l-2.15-.07s.13-3.85-.77-5.74a30.81,30.81,0,0,0-3.12-4.65ZM137.07,70.16A16.89,16.89,0,0,0,133,64.72c-3-2.81-9.52-4.93-9.52-4.93s6.61,3.25,8.76,5.83a14.67,14.67,0,0,1,2.8,5.1l2-.56Zm104.75-5.31a28.08,28.08,0,0,1,7.46-9.14A45,45,0,0,1,259,49.38s-6.34,4.08-9.19,7a65.86,65.86,0,0,0-6.12,8.06l-1.87.38ZM216,89.34s10.89-12.93,25.51-17S276.17,72,276.17,72s-18-2.21-33.67,3.91-26.87,18.54-26.87,18.54l.34-5.1Zm-11.9-34.27s10.37-16.15,16.16-19.89a29.12,29.12,0,0,1,10.54-4.42,20.14,20.14,0,0,0-9.65,5.57c-4.67,4.68-15.35,21.29-15.35,21.29l-1.7-2.55ZM185.2,60.85s-6.89-16.92-17.52-21.25-24.15-2-24.15-2,16.16-.64,23.47,4.25,16.33,23,16.33,23l1.87-3.92Z" transform="translate(0 -0.01)"/><path class="cls-26" d="M215.29,208.13a12.21,12.21,0,0,0,3.74,2.42s1.05-.85,3.5-.59,2.85,1.06,4.72,1.27a13.73,13.73,0,0,0,4.13-.34,16.94,16.94,0,0,1-3.87.67c-1.18-.08-4-1.12-4.95-1.1a14.48,14.48,0,0,0-2.68.48c3.79,1.67,8.39,3.06,9.52,4.42,1.7,2,4.93,7,4.93,7a42.11,42.11,0,0,0-5.55-6.31,8.75,8.75,0,0,0-1.77-1.14,8.67,8.67,0,0,0,0,3.57,27.26,27.26,0,0,0,1.81,4.23,17.49,17.49,0,0,1-2.21-4.12,7.07,7.07,0,0,1-.31-4c-3.94-1.84-10.3-3.51-12.21-5.52-1.7-1.78-2.5-4.6-3.63-6.73a28.13,28.13,0,0,0-1.3,4.84c-.05,1.28.87,2.93,1.08,5.44a14.55,14.55,0,0,1-.53,4.89,19.32,19.32,0,0,0,.21-4.76,9.56,9.56,0,0,0-.48-2.46,5.3,5.3,0,0,0-1.58,1.54,11.69,11.69,0,0,0-.57,2.78,10.6,10.6,0,0,1,.4-2.93,4.43,4.43,0,0,1,1.62-1.79,14,14,0,0,1-.71-2.62c-.42-2.6,1.24-6,1.24-6a4.8,4.8,0,0,0-1.05-1.14c-2.29-1.79-7.08-2.74-6.82-2.88a2.69,2.69,0,0,0,.76-.9,1.79,1.79,0,0,0,.26-1.13,17.7,17.7,0,0,1,3,1h0c.08,0,.33-.16.7-.31,1.61-.67,5.53-2.07,7.84-.8,3,1.63,3.06,3.13,4.63,3.89a14.41,14.41,0,0,0,3.74,1.06,8.75,8.75,0,0,1-3.89-.68c-1.63-.83-3.46-3.16-4.82-3.76s-5.33-.11-7.28,1.05h0a11.12,11.12,0,0,1,1.35.83,4.71,4.71,0,0,1,2.11.43,7.19,7.19,0,0,1,2.18,1.93,10,10,0,0,0-2.23-1.62A5.94,5.94,0,0,0,209,198a6,6,0,0,1,1.33,1.61c1.79,3.23,2.13,5.44,4.94,8.5Zm-37.23,34.28h0l-.1,0,.1,0ZM202,221.48a19.23,19.23,0,0,0,4.68,4.76s-3.79-1.53-5.28-4.34l-.37-.74a12.52,12.52,0,0,0-.6,2.32,13.08,13.08,0,0,0,.57,4.27,12.38,12.38,0,0,1-.89-4.3c-.09-2.5.5-3.31.5-3.31-.61-1.63-.62-2.54-1.59-3.25a15.42,15.42,0,0,0-3.79-1.64,15.15,15.15,0,0,1,.73,3.93c.09,3.83-4.67,12.25-4.67,16.5,0,.72,0,1.52.1,2.37a9,9,0,0,1,3.38,2.92,11.4,11.4,0,0,1,1.41,3.53,12.49,12.49,0,0,0-1.87-3.51,15.31,15.31,0,0,0-2.82-1.85c.37,3.87,1.16,8.06,1.16,8.06a30.22,30.22,0,0,1-2.38-11.56,20.15,20.15,0,0,1,1-5.8s-3.62,2.27-4.68,3.75c-.84,1.18-1.06,3.27-2.37,5a8.46,8.46,0,0,1,.2,4.2,6.39,6.39,0,0,1-1.7,2.61,7.73,7.73,0,0,0,1.4-3.19,12.74,12.74,0,0,0-.46-3,6.55,6.55,0,0,1-.73.64,17.45,17.45,0,0,1-4.83,2.52,13.89,13.89,0,0,0,4.45-2.89c2.81-2.46,1.57-3,3.53-6.35a12.89,12.89,0,0,1,5.71-4.92c1.28-3.68,2.86-6.87,2.49-8.68-.51-2.57-2.66-7.84-3-11.48-1,.36-3.37,1.32-4.22,2.51-1.09,1.5-1.07,2.63-2.3,4.54a5.26,5.26,0,0,1-3.17,2.28,11.26,11.26,0,0,0,2.77-2.38c1.15-1.45,1.19-2.85,2.34-4.72s4.59-3.85,4.59-3.85a74.63,74.63,0,0,1,2.51-10,9.15,9.15,0,0,0,1.1.78,4,4,0,0,0,1.11.41c.19.08-2.85,5.08-2.77,9.33a21.4,21.4,0,0,0,1.31,6.09,18.47,18.47,0,0,1,4.9,3c2,1.87,1,2.81,2.55,5.36Zm-11.42-27.36a6.09,6.09,0,0,0,.49.38,4.32,4.32,0,0,0,.67.29c.11.05-6.07,2-6.79,4.33a17.32,17.32,0,0,1-3.87,6.35,15.08,15.08,0,0,1-2.79,1.95,10.54,10.54,0,0,1-.52,4.49A17.83,17.83,0,0,1,175,216a12.58,12.58,0,0,0,2.24-4.23,14.3,14.3,0,0,0,.42-4c-2.13,1.22-4.51,2.4-5.23,2.79a14.28,14.28,0,0,0-2.74,2.32,20.46,20.46,0,0,1,2.47-2.55c.76-.51,5.86-2.72,8.5-5.27s2.63-4.34,3.4-6.46,6.52-4.49,6.52-4.49Z" transform="translate(0 -0.01)"/></g></g></g></svg>