<svg xmlns="http://www.w3.org/2000/svg" xmlns:xlink="http://www.w3.org/1999/xlink" viewBox="0 0 390.48 303.14"><defs><style>.cls-1{fill:none;}.cls-2{isolation:isolate;}.cls-3{fill:#c6c9cc;}.cls-4{clip-path:url(#clip-path);}.cls-5{fill:#2e5389;}.cls-5,.cls-6,.cls-7,.cls-8{mix-blend-mode:multiply;}.cls-6,.cls-9{fill:#d03893;}.cls-7{fill:#5f2d8c;opacity:0.83;}.cls-10{fill:#ba195a;}.cls-11{fill:#fff;fill-rule:evenodd;}</style><clipPath id="clip-path" transform="translate(59.21 -0.01)"><circle class="cls-1" cx="146.61" cy="146.61" r="146.61"/></clipPath></defs><title>Asset 1</title><g class="cls-2"><g id="Layer_2" data-name="Layer 2"><g id="Ñëîé_1" data-name="Ñëîé 1"><path class="cls-3" d="M293.22,146.62a143.82,143.82,0,0,1-1.11,17.95,146.61,146.61,0,0,1-291,.05,142.73,142.73,0,0,1-1.11-18A144.84,144.84,0,0,1,1.94,122.8,146.61,146.61,0,0,1,261.42,55.45q1.92,2.4,3.72,4.9,1.35,1.82,2.63,3.7A145.9,145.9,0,0,1,293.22,146.62Z" transform="translate(59.21 -0.01)"/></g><g id="Layer_6" data-name="Layer 6"><g class="cls-4"><path class="cls-5" d="M117.19,216.29c37.42-6.09,63.35-8.69,88.95-9.81a677.34,677.34,0,0,1,78.09,1.06c-24.3-13.88-59.89-29.62-104.7-34.67C55.79,158.94-35.61,238.09-53.93,254.63,19.1,234.11,77.38,222.78,117.19,216.29Z" transform="translate(59.21 -0.01)"/><path class="cls-6" d="M120.07,251s27.22-5.13,156.21-36h0a316,316,0,0,0-136.13-19.59c-92.83,7.32-155.83,54.39-179.3,73.94A1268.25,1268.25,0,0,1,120.07,251Z" transform="translate(59.21 -0.01)"/><path class="cls-7" d="M43.87,263c42.62-3.66,74.24-1.85,92.21-1,43.8,2.05,108.32,3.08,195.19-2.11C296.46,243.9,221,215,123,223.09a416.86,416.86,0,0,0-176.93,56.4A611.25,611.25,0,0,1,43.87,263Z" transform="translate(59.21 -0.01)"/><path class="cls-6" d="M-59.21,274.73c90.15-38.25,194.64-66.2,311.06-68.94q14.67-.34,29-.15a155.31,155.31,0,0,1-29,43.69C156.55,349.94-45.91,279.53-59.21,274.73Z" transform="translate(59.21 -0.01)"/><path class="cls-5" d="M-48.47,283.83s211.07-64.23,340.2-9.6a246.54,246.54,0,0,1-60.89,20.26c-47,9-83.78,1.42-106.94-2.52C84.21,285.21,27.07,279.35-48.47,283.83Z" transform="translate(59.21 -0.01)"/></g></g><g id="Layer_5" data-name="Layer 5"><g class="cls-8"><path class="cls-9" d="M215.67,173.67c0,.17,0,.33-.08.49C215.75,174,215.85,173.9,215.67,173.67ZM181.48,100h0A0,0,0,0,1,181.48,100Z" transform="translate(59.21 -0.01)"/><path class="cls-9" d="M180.27,140.12a2.15,2.15,0,0,1-.08-.42A1.25,1.25,0,0,1,180.27,140.12Z" transform="translate(59.21 -0.01)"/><path class="cls-9" d="M181.45,100l0,0v0Z" transform="translate(59.21 -0.01)"/><path class="cls-9" d="M181.48,100h0s0,0,0,0Z" transform="translate(59.21 -0.01)"/><path class="cls-9" d="M191,94.5l0,0s0,.06,0,.08Z" transform="translate(59.21 -0.01)"/><polygon class="cls-9" points="277.35 147.04 277.34 147.05 277.34 147.04 277.35 147.04"/></g><g class="cls-8"><path class="cls-10" d="M281.39,202.75c-.82-.15-.58-.55-.27-1,1.28-2,2.36-4,3.67-6-1.54-.27-2.83-.52-4.29-.77-.38-.08-.58-.18-.54-.64a30.81,30.81,0,0,0-.21-6.44,26.1,26.1,0,0,0-5.63-13.27c-.19-.25-.35-.58-.72-.63-.22,2-.43,3.93-.66,6-.09-.09-.11-.1-.11-.13-.06-.4-.12-.8-.19-1.21A20.17,20.17,0,0,0,270,171a5.81,5.81,0,0,1-.76-1.93,26.65,26.65,0,0,0-6.31-13.8c-.35,1.46-.66,2.83-1,4.32-.22-1-.44-1.91-.59-2.81-.1-.62-.46-1.23-.18-1.91.09-.21-.19-.07-.26-.18s-.16,0-.21.09a1.2,1.2,0,0,1-.28.41c-1.06.77-2.14,1.53-3.22,2.3l-.08-.07c.67-1.18,1.34-2.36,2.06-3.65a29.73,29.73,0,0,0-7.24,1.86,37.06,37.06,0,0,0-7.19,4.36,2,2,0,0,1-.74.43,15.73,15.73,0,0,0-5.39,2.47c-1.14.73-2.17,1.59-3.3,2.36l3.57-4.91a16.32,16.32,0,0,0-3.35.53,28.22,28.22,0,0,0-15.18,10c-.36.43-.59.46-1,.16-1.21-.8-2.45-1.53-3.7-2.3.18-1.76.45-4.63.9-9.37a5.5,5.5,0,0,1,.19-1.28c.08-.13.08-.32.28-.37.08-.23.47-.35.26-.71s-.38-.55,0-.84c.23-.09.61.23.65-.28.15-.28-.16-.48-.11-.74-.17-.4.55-1-.34-1.27-.28-.33.05-.72-.08-1.08a25.05,25.05,0,0,1,.51-5.32c.14-.12.07-.37.28-.43h0c.07-.3.38-.46.46-.76s-.13-.53-.32-.73a.93.93,0,0,1-.12-.54,3.93,3.93,0,0,1,0-1.28c.45-3.73.67-7.5,1.31-11.21a.44.44,0,0,1,.13-.24c.27-.33.11-.91.65-1.07a.55.55,0,0,0-.23-.73c-.18-.3,0-.6,0-.89a5.2,5.2,0,0,1,.19-1.72c.17-.22-.15-.69.38-.73,1.16.12,1.16.12,1.41-1,0,0,.06-.08.11-.11l.37-.32c-.44-.21-.93-.09-1.36-.29a1,1,0,0,1-.18-.08c-.3.06-.28-.18-.32-.36s-.05-.35-.1-.52c.14-1.56.31-3.13.5-4.68.09-.15.06-.35.2-.48-.26-.39-1.3,0-1-1,0-1.18.22-2.34.3-3.52a.29.29,0,0,0-.22-.23c-1.56-.06-3.1-.34-4.66-.39-.19,0-.4.12-.55-.1-.05,0-.19-.08-.06-.19,0,.21.12,0,.19,0a2,2,0,0,0,.05-.82,23.13,23.13,0,0,1,.44-5,1.2,1.2,0,0,0,.14-.87.22.22,0,0,0,0-.16,1.36,1.36,0,0,1-.1-.21,24.7,24.7,0,0,1,.43-3.52c0-.25-.1-.35-.35-.3-3.21-.31-6.41-.64-9.61-1a.62.62,0,0,1-.23-.2c-.08-.5.31-1,0-1.51a.82.82,0,0,0-.15.42v-.07c-.12-.22-.31-.22-.52-.14s-.12.13-.16.23a1,1,0,0,0,0-.34.23.23,0,0,0-.21-.11,6.6,6.6,0,0,1-1.41-.11,1,1,0,0,1-.24-.11.25.25,0,0,0,.12-.08c-1.36-1.73-3.53-2.35-5.19-3.68a.55.55,0,0,1-.15-.2c-.09-.48-.44-.65-.85-.76-1.93-.22-3.86-.39-5.78-.62a1.84,1.84,0,0,1-.38-.17h0a10,10,0,0,1-.83,1.46.69.69,0,0,1-.54.12c-.16,0-.31-.07-.43.09a.13.13,0,0,0,.09.11c-.11.06-.13-.06-.19-.08a5.83,5.83,0,0,0-2.55.93.29.29,0,0,1-.36.14,3.62,3.62,0,0,1-3.14.53c-.11,0-.23,0-.34,0-.42-.11-.51.09-.57.48s.21.84-.34,1c-.1,0-.21.07-.27.18s-.18.25-.15.42a.92.92,0,0,1-.09-.23c-.22-.41-.64-.32-1-.36-2.42-.28-4.84-.5-7.26-.78a3.44,3.44,0,0,1-.53-.21l-.52,0c-.23.07-.27.24-.24.46s-.07.62-.08.94a12.3,12.3,0,0,0-.16,2.78.85.85,0,0,1,.13.1c.11.21-.08.08-.11.08a.47.47,0,0,0-.49.47c-.18,1.81-.38,3.6-.56,5.4-.07.24.11.6-.33.64-.23.16-.42,0-.61-.08a.6.6,0,0,0-.35,0,8,8,0,0,1-3.08-.32.45.45,0,0,0-.25-.07c-.23.07-.53.34-.41.43s.21.2.19.26-.2,0-.37.21a.34.34,0,0,0-.06.06,6.32,6.32,0,0,0-.52,1.89c-.06.62,0,1.13-.36,1.46a1.23,1.23,0,0,1-.77.26c-.36,2.81-.58,4.73-.58,5.34,0,.09,0,.49-.21.64a.59.59,0,0,1-.47,0c-.33-.08-.48.1-.48.42a2.8,2.8,0,0,0,0,.51c-.05-.19.06-.43-.23-.5-.14,0-.26,0-.29.2-.13,1.16-.14,1,.89,1.1.16,0,.34,0,.44.15a.24.24,0,0,0,0,.15,6.75,6.75,0,0,1-.22,2.06.9.9,0,0,1,0,.18c.05.11.08.22.12.32s.26.49-.12.64a.21.21,0,0,0-.17,0c-.54,0-.4.58-.33.69.46.68.25,1.41.28,2.12a2.09,2.09,0,0,1,0,.86c-.34,3.3-.69,6.62-1,9.94-.12.31.21.66-.08,1-.08.13.12.39-.19.42a1.18,1.18,0,0,0-.16.29c-.09-.06-.06-.2-.15-.27-.11.49-1.07,1.06.14,1.42.28.21.09.48.06.71-.16,1.74-.37,3.47-.52,5.22,0,.23.23.47,0,.7a1.12,1.12,0,0,1-.19.24c-.88,0-.44.66-.48,1.06a.39.39,0,0,0,.22-.28.14.14,0,0,1,0,.15.43.43,0,0,1-.27.22c-.21,0-.44-.11-.67.09.15.29.24.77.46.85.84.29.34.76.25,1.17a1.41,1.41,0,0,1,.2.83c-.59,5-1.16,10.05-1.57,15.09a.57.57,0,0,1-.23.45v0c-.14.16-.38.3-.21.58s.09.56.12.85a10.78,10.78,0,0,1,0,1.6.63.63,0,0,1-.38.76.35.35,0,0,0,0,.08q9.51.24,19.3,1.24c.48-4.39.93-8.79,1.4-13.2.53-4.93,1-9.87,1.57-14.8l.3-.53c0-.34.11-.68.16-1a.62.62,0,0,0-.09-.29,1.34,1.34,0,0,1-.12-.3.87.87,0,0,1,0-.77c0-.55.35-1,.36-1.54a1.11,1.11,0,0,0,.07.16,17.5,17.5,0,0,1,1.33-3,.79.79,0,0,1,.44-.62.77.77,0,0,0,.41-.49c0-.07-.13-.16-.09-.2s.17,0,.26,0a12.25,12.25,0,0,1,3-2.13c.2-.18.48-.18.73-.28a9.74,9.74,0,0,1,2.46-.47c.2,0,.36-.11.51.13s2,.71,2.14.48c.45-.65.9-.18,1.32-.06a14.6,14.6,0,0,1,1.48.63c.18-.06.27.05.34.18a15,15,0,0,0,2.09,1.62c.35.09.65.23.47.69l.57,1a9.22,9.22,0,0,1,1.24,5.08c0,.5-.12.77-.7.62-.39-.1-.46,0-.49,0-.19.15-.07.58,0,.65.22.79,1.16,1.2,1.53,1.35l-3.14,29.75c4.14.75,9.59,1.83,16,3.39l2.53.63a276.44,276.44,0,0,1,65.71,26.12l.4.21.22-.54c.25-.58.49-1.16.74-1.73a.54.54,0,0,0-.09-.43A.42.42,0,0,0,281.39,202.75ZM179.81,143.7s-.06,0-.07.05a1,1,0,0,0-.07.2,2.13,2.13,0,0,1,0-.25Zm.38-4a1.25,1.25,0,0,1,.08.42A2.15,2.15,0,0,1,180.19,139.7ZM181.43,100v0l0,0Zm0,.07s0,0,0,0h0a0,0,0,0,0,0,0s.1,0,.08,0S181.51,100.07,181.48,100Zm34.16,75.73c-.25-.1-.26-.26-.23-.46l.18-1.15c0-.16,0-.32.08-.49.19-1.21.38-2.45.57-3.71,2.25,2,2.81,4.8,3.88,7.54C218.51,176.87,217.07,176.31,215.64,175.77Zm42.08-9.66c.26-.06.22.21.25.39a30.81,30.81,0,0,1,1.68,12.84c-.07,1-.13,2.07-.14,3.12.78-1.49,1.46-3,2.26-4.53a38.61,38.61,0,0,1,2.72-4.45,18.47,18.47,0,0,1,3.45-3.78c-.68,1.22-1.36,2.46-2.07,3.68a89,89,0,0,0-5.64,11.78,2.48,2.48,0,0,1-1.9,1.14c-.37-.07-.15-.38-.14-.54.06-2.07.18-4.14.25-6.22a79.81,79.81,0,0,0-.64-12.36,5.46,5.46,0,0,1,0-.57C257.67,166.43,257.57,166.15,257.72,166.11ZM226,177.2c-.35.37-.42-.12-.53-.27a21.18,21.18,0,0,0-4.64-5c-.19-.14-.35-.27-.13-.57.33-.47.5-.64.66-.58a18.19,18.19,0,0,1,2.73,2.34,25.75,25.75,0,0,1,2.33,3C226.81,176.82,226.2,177,226,177.2Zm1.68,3.19a39.25,39.25,0,0,1,7.62-5c1.32-.65,1.3-.65,2.28.5,2.72,3.16,4.45,6.88,6.13,10.75Zm14.52-1c-.4.52-.53.39-.85-.08a2,2,0,0,1-.2-2.11,93.64,93.64,0,0,0,4.52-15.7,1.75,1.75,0,0,1,.18-.46c.49,5.25-.93,10.19-2.48,15.14,3.31-4.34,7-8.24,11.93-10.74.13-.11.3-.35.44-.12s-.18.27-.35.36c-1.86,1.64-3.74,3.27-5.5,5A110.91,110.91,0,0,0,242.15,179.39Zm26,16.79L252.22,190c.7-.33,1.38-.67,2.05-1a35.6,35.6,0,0,1,10.43-3c.6-.06.81.09,1,.64a42,42,0,0,1,2.39,9C268.15,195.83,268.25,196,268.1,196.18Zm3.49-1.19c0-.33-.4-.83.28-1a19.5,19.5,0,0,1,6.88-.62c.69.07.9.41.64,1.07-.06.29-.29.23-.46.2a21.18,21.18,0,0,0-6.83.52C271.92,195.2,271.55,195.45,271.59,195Zm7.89,5.67c-1.18-.54-2.42-1-3.82-1.51,2.63-1.29,4.93-2.94,8-2.93-.91,1.37-1.82,2.63-2.62,4A1,1,0,0,1,279.48,200.66Z" transform="translate(59.21 -0.01)"/></g><g class="cls-8"><path class="cls-10" d="M156,159.39a.81.81,0,0,0-.22-.62.85.85,0,0,0-.66-.09c-3.19.36-6.39.66-9.58,1-.56.07-.75-.08-.8-.64-.15-1.8-.38-3.59-.53-5.39,0-.58-.19-.78-.81-.69-1.3.19-2.62.25-3.93.44a.87.87,0,0,1-1.12-.66,8.54,8.54,0,0,0-2-3.14,14,14,0,0,0-5-3c-1.48-.58-2.67-1.19-2.4-3.07,0-.28-.08-.48-.45-.45s-.44.26-.39.58.05.87.14,1.29a1,1,0,0,1-.57,1.24c-.65.36-1.22.85-1.83,1.27-2.65,1.84-4.76,4.05-5.17,7.43,0,.4-.27.44-.58.46-1,.1-2,.22-3.08.31-.42,0-.58.13-.52.63.2,1.7.32,3.42.51,5.13,0,.4.06.74-.45.66-.71-.11-1.5.67-2.13-.2,0,0,0-.06,0-.09-.2-1-.41-1.9-.61-2.85-.86-4.17-1.7-8.35-2.58-12.52a1.05,1.05,0,0,1,.18-1,2.42,2.42,0,0,0-.74-3.9,1.47,1.47,0,0,1-.79-1c-.59-3.12-1.17-6.25-1.76-9.37a1.19,1.19,0,0,1,.19-1,2.2,2.2,0,0,0-.6-3.29,1.57,1.57,0,0,1-.71-1c-.37-1.67-.76-3.34-1.14-5A.93.93,0,0,1,106,120c.94-1.23.77-2.15-.54-3a1.05,1.05,0,0,1-.56-.79q-.51-3.48-1-7a1,1,0,0,1,.19-.79c.66-.91.54-1.53-.45-2.11a1,1,0,0,1-.56-.85c-.26-1.73-.59-3.45-.82-5.18-.09-.65-.41-1.32,0-2a1.48,1.48,0,0,0-.84-2.32c-.23-.1-.51-.1-.67-.34l-1.2.12c0,.19-.2.26-.34.35-1.25.82-1.37,1.5-.42,2.62a1.17,1.17,0,0,1,.23.8c0,2,.08,4,.17,6a1.43,1.43,0,0,1-.54,1.4,1.16,1.16,0,0,0,0,2,1.22,1.22,0,0,1,.43,1q.14,3.52.28,7a1.2,1.2,0,0,1-.27.86,1.67,1.67,0,0,0,0,2.52,1.17,1.17,0,0,1,.3.86c-.08,1.48-.15,3-.22,4.44a3.64,3.64,0,0,1-.77,2.53,1.85,1.85,0,0,0,0,2.52,2.18,2.18,0,0,1,.52,1.64c0,2.54,0,5.09,0,7.63a3.83,3.83,0,0,1-1,3.23c-1.14,1.05-.92,2.43.28,3.43a1.41,1.41,0,0,1,.53,1.25q-.15,7.71-.28,15.43c0,.54-.22.66-.7.7-2,.19-4,.43-6.07.61a.79.79,0,0,0-.56.2.69.69,0,0,0-.08.57c.11.56.36,3.25.68,7l-1.46.6-8.37-18.45-3-6.46a1.87,1.87,0,0,0-.5-1,2.5,2.5,0,0,0-1.38-.48c-.59-1.24-1.08-2.12-1.22-2.06a5.79,5.79,0,0,0,.61,2.3,2.41,2.41,0,0,0-.64,1.34,1.78,1.78,0,0,0,.34,1l9.43,25.13a.58.58,0,0,1-.32.75l-3.67,1.52a.58.58,0,0,1-.76-.3L72.3,158.31a3.37,3.37,0,0,0-.55-1,1.61,1.61,0,0,0-.9-.35,8.3,8.3,0,0,0-1.4-2.51c-.16.07.19,1.23.76,2.72a1.78,1.78,0,0,0-.47,1,3.88,3.88,0,0,0,.3,1.07l7.28,19.15c-.32.2-.68.4-1.06.6a14.41,14.41,0,0,1-2.54,1,.59.59,0,0,1-.69-.35l-5.44-13.07-.37.11-.85-2a.58.58,0,0,0-.77-.31l-1.45.6a.6.6,0,0,0-.32.77l.5,1.2a.6.6,0,0,1-.32.78l-1.87.76-.28.12-1.64-3.94-.83.35A3.09,3.09,0,0,0,58,163.52a6.42,6.42,0,0,0-2.23-.62.62.62,0,0,1-.49-.35c-.69-1.55-1.35-2.67-1.55-2.59s.13,1.33.73,2.9a.58.58,0,0,1-.1.59,6.53,6.53,0,0,0-1.2,2.09,3.34,3.34,0,0,0-.11.57l-.28-.66-1.1.45c2.22-5.52.63-8.38.21-9.05-1.33-2.13-4.37-3.19-10.39-5.22-2-.69-3.75-1.18-4.94-1.5l-.08,0c-.15-.43-.32-.89-.52-1.37a9.64,9.64,0,0,0-1.84-3.2v0c-.06,0-.11-.09-.15-.08h0s0,.1,0,.15v0a9.15,9.15,0,0,0,1,3.56c.2.47.4.92.61,1.33l-.09,0a16.39,16.39,0,0,1-2.3,4.65c-2,3.23-4.68,7-3.73,11s6,6.05,6.57,6.24l-1.1.46.28.67a4.61,4.61,0,0,0-.49-.32,6.32,6.32,0,0,0-2.33-.63.57.57,0,0,1-.48-.34c-.68-1.54-1.35-2.65-1.55-2.57s.14,1.36.74,2.94a.58.58,0,0,1-.09.58,6.58,6.58,0,0,0-1.13,2,3.17,3.17,0,0,0,0,2l-.83.35,1.4,3.36a.59.59,0,0,1-.31.76l-1.59.7a.58.58,0,0,1-.78-.31l-.5-1.2a.58.58,0,0,0-.77-.31l-1.46.6a.6.6,0,0,0-.32.77l.85,2-.33.19,5.63,13.54a16.19,16.19,0,0,1-1.45.75,16.52,16.52,0,0,1-2.17.82.58.58,0,0,1-.69-.33l-8.25-18.2a3.81,3.81,0,0,0-.55-1,1.44,1.44,0,0,0-.74-.32.55.55,0,0,1-.41-.33c-.6-1.31-1.11-2.22-1.25-2.16s.2,1.26.79,2.76a1.56,1.56,0,0,0-.4.89,3.63,3.63,0,0,0,.29,1.07L23,200.38a.58.58,0,0,1-.32.75l-3.66,1.53a.6.6,0,0,1-.77-.3L7.12,178a1.8,1.8,0,0,0-.5-1,2.46,2.46,0,0,0-1.4-.48c-.58-1.25-1.06-2.11-1.2-2s.13,1,.62,2.31A2.43,2.43,0,0,0,4,178.09a1.68,1.68,0,0,0,.34,1l2.44,6.72L14,204.78l-1.63.79.87,2A312.59,312.59,0,0,1,47,191.72a319.72,319.72,0,0,1,45.13-14l1.46-.32a261.38,261.38,0,0,1,63.5-6.09C156.4,164.72,156,160.05,156,159.39ZM54.56,187.76c-1,.36-2,.76-3.09,1.22-.74.31-1.45.63-2.13,1a.57.57,0,0,1-.78-.3L46,183.45A3.91,3.91,0,0,1,46.3,180a3.33,3.33,0,0,1,1.41-1.36,3.49,3.49,0,0,1,2,0,3.93,3.93,0,0,1,2.69,2.24c.34,1,.72,2.07,1.18,3.17s.89,2.07,1.34,3A.57.57,0,0,1,54.56,187.76ZM103,172c-.8.13-1.13-.05-1.14-.91s-.19-1.64-.22-2.47c0-.65.11-1.29.92-1.42.59-.09,1.12.47,1.24,1.27.07.48.1,1,.15,1.44l.08.77C104.13,171.88,104.12,171.83,103,172Zm17-1.17c-.34,0-.41-.16-.44-.46-.11-1.19-.25-2.38-.38-3.57a1.94,1.94,0,0,1,0-.34c0-1.06.5-1.74,1.23-1.78s1.37.62,1.5,1.66c.07.59.12,1.19.18,1.78l.07.6C122.37,170.71,122.09,171,120,170.85Zm5.89-.94c-.08.79-1.47.38-2.25.55-.47.1-.42-.33-.45-.64-.06-.62-.13-1.25-.19-1.87h0c-.07-.68-.18-1.36-.2-2a1.33,1.33,0,0,1,1.05-1.55,1.26,1.26,0,0,1,1.49,1A11.48,11.48,0,0,1,125.92,169.91Zm7.91.68c-1.6.15-3.19.3-4.78.5-.57.08-.67-.13-.71-.62-.07-1.06-.2-2.11-.31-3.16a17.51,17.51,0,0,1-.23-4.09,2.79,2.79,0,0,1,5.41-.83,4.35,4.35,0,0,1,.53,1.53c.22,2,.41,4,.64,6.06C134.44,170.46,134.24,170.56,133.83,170.59Zm5.1-1.67c-.36,0-.52-.08-.55-.45-.12-1.31-.29-2.61-.38-3.92-.07-1,.46-1.74,1.2-1.79s1.38.59,1.52,1.56c.09.62.13,1.24.2,1.87,0,.17,0,.34.05.51C141.2,168.9,141.2,168.89,138.93,168.92Zm5.87-1c-.49.83-1.37.33-2.05.54-.27.09-.61.16-.66-.35-.14-1.3-.32-2.6-.46-3.9a2,2,0,0,1,.06-.6c.13-.66.43-1.21,1.18-1.25a1.35,1.35,0,0,1,1.37,1.08,11.71,11.71,0,0,1,.27,2.37c.08.51.16,1,.23,1.52C144.77,167.56,144.88,167.81,144.8,168Z" transform="translate(59.21 -0.01)"/></g></g><g id="Layer_4" data-name="Layer 4"><path class="cls-11" d="M147.74,214.76c-.24-.15-2.11-1.3-2.86-1.9a21.9,21.9,0,0,0-3-1.4c-.51-.35-.52-1.23-.2-2a12.74,12.74,0,0,0,1.1-2.65,25,25,0,0,0,.86-4.58c.12-2,0-14.79.42-16.9s1.22-3.72,1.31-5.42-.23-8.39-.18-9.22-.71-.3-.83-2.38-1.19-3.58-1.43-4.83-.71-4.64-2.56-5.53-7.29-1.19-10.68-.71-13.92,2.67-16.54,2.08a5.41,5.41,0,0,1-4.47-5.36c.12-2.62,3.51-6.6,12.44-10.32s14.43-7,15-7.89,1.23-2.35,2.06-3.78,1.63-2.29,1.87-4.43a16.68,16.68,0,0,0-1.25-8.39c-1.43-3.57-2.46-8-2.92-9.39a53.39,53.39,0,0,1-2-5.88c-1-3.67-.15-17.76.68-20.71s4.58-6.84,6.37-9.52,3.69-5.51,4.34-7.53,1.19-7.91,2.3-7.88,1.36,5.35,1.84,7.17a12.25,12.25,0,0,0,1.49,4.16c.89,1.37,9,9.44,10.06,11.85s1.36,19.58,1,22.14-1.19,7.67-1.28,8.39a37,37,0,0,1-1,4.46,51.46,51.46,0,0,0-2,9.82c-.12,3.09,2.85,8.82,2.86,15.77s-3.57,16.34-5,21.22-2.74,8.92-2.74,12.55-.15,9.62-1,12.65-4,13-4.26,14.85-.74,5.21-.44,5.56a42.13,42.13,0,0,1,3.71,4.36c.42.9-1.28,2.83-3.21,1.6ZM147.3,82.89a5.64,5.64,0,0,1,5.55,3.18c.62,1.16.31,5,.4,5.12a1.37,1.37,0,0,1,.48,1.06,2,2,0,0,1-.47,1.29,7,7,0,0,1-1.2,2.52c-1.13,1.72-1.26,1.75-1.2,3.89s2.57,3.1,3.1,3.1.88-1.18,1.46-2,1-1.34,1.4-1.82c.18-.24-.45-4.16-.54-8.07a62.92,62.92,0,0,1,.36-7.68s-1.67-2.4-3.52-5.32-2.75-4.73-3.4-5.8a29.21,29.21,0,0,0-2.23-2.85,19.16,19.16,0,0,0-2.12,2.55c-.65,1.07-1.65,4.26-3.5,7.18s-3.19,4.66-3.19,4.66.21,3.91.24,7.81-.39,8-.21,8.22a8.55,8.55,0,0,1,.8,1.15c.53.88.87,1.93,1.4,1.93s3.33-.9,3.39-3-.35-2.21-1.48-3.94-.92-1.73-1-2a4.33,4.33,0,0,1-.65-1.82,1.26,1.26,0,0,1,.42-1c.08-.09-.16-4,.46-5.16a5.24,5.24,0,0,1,5.3-3.19Zm-1.4,64.62c.77,1.19.48,3.8.06,4s-11.55.84-10.12-.12-.65-1.31,10.06-3.92Z" transform="translate(59.21 -0.01)"/><path class="cls-11" d="M128.2,94.73s-20-15.9-37.84-14S52.42,94.82,52.42,94.82,76.87,82.83,90.26,83,128.2,99.19,128.2,99.19V94.73Zm-5.34,2.71s-5-2.25-8.2-.39-2.74,5.13-6.23,8.46c3.37.61,6.13.94,9.78-.47s5.83-6.42,5.41-6.77a3.07,3.07,0,0,0-3.51.35c-1.24,1.18-1.36,1.6-2.41,2.43a18.21,18.21,0,0,1-3.76,1.92,16.56,16.56,0,0,0,3.69-2.15c1.4-1.22,1.51-1.91,2.26-2.5s1-.88,3-.88Zm-13.65-6.23s-1,4-3.86,5.68-4.69.9-8.86,2.21c1-2.94,1.94-5.27,4.66-7.55s7.65-1.8,7.73-1.31a2.75,2.75,0,0,1-1.81,2.62c-1.48.47-1.86.38-3,.85a17.32,17.32,0,0,0-3.18,2.13,15.4,15.4,0,0,1,3.32-2c1.59-.58,2.18-.36,3-.7s1.11-.36,2-2ZM96.29,85.69S96.22,90.23,93.7,92s-4.8.24-8.52,1.69c.72-2.73,1.44-4.92,3.78-7.16s6.86-2.12,7-1.68a2.53,2.53,0,0,1-1.49,2.51,27.2,27.2,0,0,0-2.67,1A16,16,0,0,0,89,90.42a14.26,14.26,0,0,1,2.9-2c1.41-.62,2-.47,2.67-.82s1-.4,1.71-1.91Zm-14.4,0a7.3,7.3,0,0,1-1.48,4.71c-1.62,1.77-3,1.59-5.62,3.36a10.53,10.53,0,0,1,1.63-6.15c1.4-2.13,4.88-2.83,5-2.52a2,2,0,0,1-.7,2.19,21.65,21.65,0,0,0-1.87,1.19,11.83,11.83,0,0,0-1.74,2.13,11.2,11.2,0,0,1,1.87-2c1-.72,1.42-.7,1.9-1.09s.69-.48,1-1.77ZM68,90s-2.53.12-3.45,1.55-.06,2.68-.81,4.78a7.51,7.51,0,0,0,3.93-2.23c1.21-1.34,1.07-3.86.82-3.91a1.42,1.42,0,0,0-1.37.87,14,14,0,0,1-.49,1.5,9.67,9.67,0,0,1-1.14,1.58,8.38,8.38,0,0,0,1.07-1.65c.32-.8.22-1.11.41-1.5s.2-.56,1-1Zm-7.86-.71s-.86-2.44-2.53-2.92-2.64.73-4.9.62A7.55,7.55,0,0,0,56,90.13c1.66.79,4.08-.09,4.06-.34A1.44,1.44,0,0,0,58.8,88.7c-.8,0-1,.06-1.61,0A8.77,8.77,0,0,1,55.32,88a7.76,7.76,0,0,0,1.93.56c.87.08,1.14-.11,1.58,0s.61,0,1.27.72ZM73.52,83s-1.16-3.31-3.42-4-3.57,1-6.64.84A10.35,10.35,0,0,0,68,84.22c2.26,1.07,5.52-.13,5.5-.47a1.94,1.94,0,0,0-1.7-1.47,20.87,20.87,0,0,1-2.18,0,11.64,11.64,0,0,1-2.54-.89,10.79,10.79,0,0,0,2.61.76c1.18.11,1.55-.14,2.15,0s.82,0,1.71,1Zm5.69-11.7s1.77-1.82,1.47-3.49-1.79-2-2.68-4a7.51,7.51,0,0,0-1.35,4.31c0,1.81,1.87,3.54,2.08,3.41A1.41,1.41,0,0,0,79.14,70c-.32-.73-.48-.84-.68-1.43a9.17,9.17,0,0,1-.24-1.94,8,8,0,0,0,.35,1.94c.31.8.59,1,.73,1.38s.23.55-.09,1.42Zm-6.88-5.11s.87-2,.13-3.23-2-1.06-3.35-2.42a6.39,6.39,0,0,0,.22,3.85A3.77,3.77,0,0,0,72,66.52a1.21,1.21,0,0,0-.15-1.38,12.48,12.48,0,0,1-1-.94,6.43,6.43,0,0,1-.77-1.47A6.49,6.49,0,0,0,71,64.17c.49.55.76.59,1,.88s.35.37.35,1.17Zm3.75,6.93s-1.91-2.55-4-2.5-2.82,1.83-5.52,2.54a9.42,9.42,0,0,0,5.08,2.51c2.25.31,4.76-1.62,4.64-1.92a1.76,1.76,0,0,0-1.87-.8c-1,.25-1.14.42-1.91.55A10.63,10.63,0,0,1,70,73.45a9.88,9.88,0,0,0,2.47,0c1-.23,1.3-.55,1.85-.64s.72-.18,1.75.39Zm17,4.54s.31-4.28-1.91-6.11-4.49-.62-7.85-2.29c.45,2.63.94,4.74,3,7s6.27,2.55,6.41,2.15A2.37,2.37,0,0,0,91.51,76c-1.19-.6-1.53-.57-2.42-1.12a13.62,13.62,0,0,1-2.41-2.24,12.63,12.63,0,0,0,2.55,2.13c1.28.69,1.81.59,2.44,1s.9.45,1.44,1.93Zm17,5.91s-3.8-.52-5.68-3-1.3-4.28-2.93-8c2.83.63,5.09,1.28,7.48,3.58s2.44,6.94,2,7.06a2.58,2.58,0,0,1-2.63-1.42c-.58-1.33-.53-1.69-1.08-2.69a16.33,16.33,0,0,0-2.3-2.74,14.3,14.3,0,0,1,2.17,2.89c.69,1.42.55,2,.94,2.7s.45,1,2,1.67Zm15.57,6s-5.37-1.32-7.67-5.2-1.22-6.32-3-11.93c4,1.32,7.11,2.6,10.18,6.26S127.61,89,127,89.12a3.71,3.71,0,0,1-3.54-2.44c-.63-2-.51-2.5-1.14-4a22.31,22.31,0,0,0-2.89-4.27,20.33,20.33,0,0,1,2.67,4.46c.78,2.14.49,2.94,1,4s.49,1.51,2.65,2.7ZM94.58,59.12s-1.24-4.1-4-5-4.42,1-8.16.66c1.36,2.3,2.58,4.09,5.28,5.52s6.76.14,6.74-.28a2.36,2.36,0,0,0-2-1.89,26.67,26.67,0,0,1-2.67-.17,15.08,15.08,0,0,1-3-1.23,13.46,13.46,0,0,0,3.15,1.07c1.43.19,1.9-.09,2.63,0s1,.1,2,1.29ZM105,68.33s-3.24,2.81-6.73,2.53-4.55-2.07-8.91-3.46c2.62-1.91,4.84-3.34,8.54-3.64s7.62,3.07,7.41,3.54a2.89,2.89,0,0,1-3.14,1.15c-1.55-.49-1.82-.8-3.06-1.07a17.18,17.18,0,0,0-4-.09,15.76,15.76,0,0,1,4,.31c1.7.47,2.08,1,3,1.2s1.17.36,2.89-.47Zm2.23-7s-4.26.55-7-1.61-2.66-4.24-5.52-7.8c3.24-.15,5.88-.11,9.13,1.68s4.66,6.77,4.22,7a2.88,2.88,0,0,1-3.25-.77c-1-1.27-1.07-1.67-2-2.59A17.75,17.75,0,0,0,99.59,55a16.08,16.08,0,0,1,3.18,2.48c1.16,1.33,1.18,2,1.81,2.64s.78.95,2.68,1.21ZM92.58,42.62s-2.13-1-3.48-.19S87.92,44.6,86.43,46a6.92,6.92,0,0,0,4.16-.18c1.55-.59,2.49-2.71,2.31-2.86a1.31,1.31,0,0,0-1.49.14,14.2,14.2,0,0,1-1,1,7.79,7.79,0,0,1-1.6.8,6.72,6.72,0,0,0,1.57-.9c.6-.52.65-.81,1-1.06s.4-.37,1.26-.36Zm13.49.76s-2.89-1.32-4.75-.25-1.59,3-3.63,4.87a9.45,9.45,0,0,0,5.67-.23c2.12-.81,3.39-3.7,3.15-3.9a1.76,1.76,0,0,0-2,.19,18,18,0,0,1-1.4,1.39,11.49,11.49,0,0,1-2.19,1.11A9.64,9.64,0,0,0,103,45.32c.82-.7.89-1.1,1.32-1.44s.55-.51,1.72-.5Zm12.61,8.14s-2.35-3.58-5.23-3.69-4,2.23-7.64,3c2,1.81,3.63,3.19,6.63,3.79s6.52-1.78,6.39-2.18a2.36,2.36,0,0,0-2.45-1.24c-1.31.25-1.56.48-2.6.58a14.25,14.25,0,0,1-3.28-.31,13,13,0,0,0,3.32.13c1.43-.21,1.8-.62,2.54-.69s1-.19,2.32.66Zm-2.55-17.13a5.93,5.93,0,0,1-1.64-3.67c0-2,1-2.61,1.64-5.09a8.65,8.65,0,0,1,2.32,4.65c.29,2-1.47,4.36-1.74,4.25a1.6,1.6,0,0,1-.74-1.71c.22-.88.38-1,.5-1.75a9.75,9.75,0,0,0-.09-2.23,8.56,8.56,0,0,1,0,2.26c-.2,1-.49,1.19-.57,1.69s-.16.67.36,1.6Zm-10.42,4s.57-3.95-1.37-5.8-4.12-.89-7.14-2.66a11.75,11.75,0,0,0,2.28,6.73c1.71,2.27,5.64,2.79,5.8,2.42a2.21,2.21,0,0,0-1-2.37,24.54,24.54,0,0,1-2.17-1.2,13.53,13.53,0,0,1-2.09-2.24,12.44,12.44,0,0,0,2.23,2.14c1.13.73,1.64.68,2.2,1.08s.8.49,1.21,1.9Zm26.86.12s-4.22-1-6-4-1-4.93-2.46-9.31c3.11,1,5.59,2,8,4.81s2,8,1.49,8.13a2.91,2.91,0,0,1-2.79-1.87,31.78,31.78,0,0,0-.93-3.13,17.89,17.89,0,0,0-2.3-3.32,16.36,16.36,0,0,1,2.13,3.47c.63,1.66.41,2.3.78,3.13s.4,1.17,2.1,2.08Zm-4.2,14.26s3.2-2.38,3.14-5.06-2.29-3.55-3.16-6.94a11.87,11.87,0,0,0-3.16,6.37c-.39,2.82,2,6,2.39,5.82a2.23,2.23,0,0,0,1-2.35c-.31-1.2-.53-1.42-.69-2.38a14.19,14.19,0,0,1,.11-3.07,12.54,12.54,0,0,0,.06,3.1c.28,1.32.68,1.64.79,2.32s.23.91-.49,2.19ZM134.69,61s4.22-.72,5.48-3.31-.46-4.51.36-8.18c-2.45,1.06-4.38,2.05-6.13,4.55s-1,6.69-.57,6.73A2.38,2.38,0,0,0,136,59.08a26.61,26.61,0,0,1,.51-2.62,15,15,0,0,1,1.6-2.88,12.88,12.88,0,0,0-1.45,3c-.38,1.4-.15,1.9-.39,2.61s-.22,1-1.53,1.86Zm-8.07,9.29s-4.64,2.34-8.66,1-4.74-3.77-9.44-6.7c3.64-1.47,6.67-2.48,11.11-1.75s8,5.87,7.65,6.36a3.51,3.51,0,0,1-4,.42A38.85,38.85,0,0,0,120,67.47a21.3,21.3,0,0,0-4.67-1.29A19.28,19.28,0,0,1,120,67.74c1.86,1.05,2.15,1.8,3.13,2.29s1.27.77,3.54.3ZM167,49.86a4.6,4.6,0,0,1,2.59-1.68c1.49-.2,2.1.45,4.06.64a6.72,6.72,0,0,1-3.25,2.31c-1.53.47-3.49-.59-3.44-.81a1.24,1.24,0,0,1,1.21-.77,12.67,12.67,0,0,0,1.39.17,7,7,0,0,0,1.69-.33,6.66,6.66,0,0,1-1.73.24c-.75,0-1-.23-1.35-.23s-.53,0-1.17.46Zm-6.67,9.8a6,6,0,0,1,3.38-2.19c1.95-.26,2.74.59,5.29.83a8.67,8.67,0,0,1-4.24,3c-2,.61-4.53-.77-4.47-1.05a1.61,1.61,0,0,1,1.58-1c.9.09,1.09.22,1.8.23a10.16,10.16,0,0,0,2.2-.43,9,9,0,0,1-2.24.31c-1,0-1.26-.3-1.77-.3s-.68-.06-1.53.6ZM147.39,25.8a6,6,0,0,1-1.64-3.68c0-1.95,1-2.61,1.64-5.08a8.61,8.61,0,0,1,2.31,4.64c.3,2.06-1.46,4.36-1.73,4.26a1.62,1.62,0,0,1-.75-1.71,17.35,17.35,0,0,0,.5-1.75,9.53,9.53,0,0,0-.08-2.24,9.06,9.06,0,0,1,0,2.26c-.2,1-.49,1.2-.57,1.7s-.17.67.36,1.6Zm5.91,9.29s-1.79-2.93-1.11-5.65,2.22-3.33,3.89-6.59c1.17,2.32,2,4.26,1.76,7.23s-3.43,5.62-3.77,5.38a2.32,2.32,0,0,1-.5-2.63,24.69,24.69,0,0,0,1.26-2.27,14.07,14.07,0,0,0,.59-3.15,12.56,12.56,0,0,1-.77,3.14c-.59,1.28-1.07,1.52-1.34,2.19s-.44.88,0,2.35Zm-11.77,5.12s-4.36-2.4-5.46-6.31.42-5.78.18-11.08c3.14,2.08,5.58,3.92,7.4,7.83s-.28,9.53-.88,9.48a3.35,3.35,0,0,1-2.51-3,37,37,0,0,0-.06-3.76A20.51,20.51,0,0,0,138.69,29,18.56,18.56,0,0,1,140,33.54c.18,2-.26,2.67-.11,3.71s.07,1.42,1.67,3Zm33.14-5.89a5.93,5.93,0,0,1,.57-4c1.07-1.64,2.24-1.68,4.09-3.44a8.56,8.56,0,0,1-.51,5.17c-.85,1.9-3.56,2.91-3.73,2.68a1.62,1.62,0,0,1,.28-1.85,16.2,16.2,0,0,0,1.35-1.21,9.45,9.45,0,0,0,1.12-1.94,8.94,8.94,0,0,1-1.24,1.9c-.68.7-1,.75-1.38,1.13s-.5.48-.55,1.54Zm-9.07,7.33s-2.2-2.64-1.93-5.43,1.72-3.61,2.89-7.08c1.5,2.12,2.61,3.92,2.8,6.89s-2.57,6.06-2.94,5.88a2.32,2.32,0,0,1-.88-2.53c.42-1.23.67-1.44.91-2.43a14.39,14.39,0,0,0,.13-3.21,13,13,0,0,1-.31,3.23c-.4,1.35-.84,1.65-1,2.35s-.31.94.33,2.33Zm-6.36,9.91s2.76-3.28,2-6.06-3.26-3.15-5-6.48c-1.18,2.39-2,4.39-1.74,7.44s3.58,5.74,3.92,5.49a2.37,2.37,0,0,0,.49-2.7,25.15,25.15,0,0,1-1.3-2.32A14.28,14.28,0,0,1,157,43.7a12.78,12.78,0,0,0,.82,3.22c.62,1.31,1.11,1.54,1.39,2.23s.46.9,0,2.41Zm28.39,5.14s-1.88-3.86-.71-7.15,3.16-3.87,5.63-7.72c1.18,3,2,5.53,1.32,9.19s-4.93,6.57-5.33,6.24a2.9,2.9,0,0,1-.3-3.33,31.43,31.43,0,0,0,1.82-2.67,17.41,17.41,0,0,0,1.12-3.85,15.85,15.85,0,0,1-1.34,3.82c-.89,1.52-1.51,1.75-1.92,2.55s-.65,1-.29,2.92Zm-9.69-13s3.79,1.25,5.94-.34,1.59-3.91,3.85-6.58a11.75,11.75,0,0,0-7,1.08c-2.53,1.3-3.72,5.08-3.39,5.3a2.23,2.23,0,0,0,2.51-.52c.8-1,.86-1.25,1.55-1.94A13.39,13.39,0,0,1,184,39a12.26,12.26,0,0,0-2.5,1.83c-.91,1-.94,1.5-1.44,2s-.62.71-2.07.86Zm-1.86,20.17s4.41-3.29,4.32-7-3.15-4.88-4.35-9.55c-2.18,2.64-3.81,4.89-4.35,8.77s2.77,8.22,3.28,8a3,3,0,0,0,1.4-3.23c-.43-1.66-.73-2-.95-3.29a18.83,18.83,0,0,1,.15-4.22,17,17,0,0,0,.08,4.26c.39,1.82.94,2.26,1.09,3.2s.31,1.25-.67,3ZM164.84,81.89s-3.73-4.08-3.49-8.59,2.51-5.93,4.15-11.58c2.56,3.3,4.46,6.11,5,10.87s-3.7,9.92-4.31,9.65a3.7,3.7,0,0,1-1.58-4c.58-2,1-2.37,1.28-4a22.41,22.41,0,0,0,0-5.15,20.14,20.14,0,0,1-.26,5.2c-.54,2.2-1.23,2.71-1.44,3.86s-.43,1.52.7,3.71Zm14.81-5.17s-2.29-4.41-1-8.27,3.56-4.58,6.3-9.12c1.46,3.47,2.46,6.36,1.81,10.62s-5.52,7.77-6,7.39a3.35,3.35,0,0,1-.46-3.84,36.49,36.49,0,0,0,2-3.16,20.25,20.25,0,0,0,1.18-4.49,18.22,18.22,0,0,1-1.44,4.46c-1,1.79-1.7,2.08-2.15,3s-.73,1.22-.25,3.39Zm-4.33,20.86s2.94-3.12,6.43-3.21,4.73,1.58,9.2,2.52c-2.41,2.17-4.46,3.81-8.1,4.49s-7.89-2.26-7.72-2.75a2.87,2.87,0,0,1,3-1.46c1.59.33,1.89.6,3.15.75a17.34,17.34,0,0,0,4-.33,15.45,15.45,0,0,1-4,.11c-1.74-.29-2.17-.79-3.07-.88s-1.2-.25-2.83.76Zm49.4-17.89a4.67,4.67,0,0,1,3.09-.47c1.46.43,1.75,1.29,3.48,2.27a6.65,6.65,0,0,1-4,.78,4,4,0,0,1-2.83-2.17,1.26,1.26,0,0,1,1.44-.21c.61.35.7.51,1.2.74a7.12,7.12,0,0,0,1.69.39,6.65,6.65,0,0,1-1.68-.49c-.68-.35-.8-.62-1.15-.78s-.47-.26-1.28-.06ZM207,81.17s2.74-1.51,5.19-.78,2.93,2.16,5.83,3.81a11.19,11.19,0,0,1-6.64,1.3c-2.69-.34-5-3.34-4.75-3.64a2.1,2.1,0,0,1,2.41-.35,21.61,21.61,0,0,0,2,1.23,12.28,12.28,0,0,0,2.84.67,11.65,11.65,0,0,1-2.83-.83c-1.14-.59-1.33-1-1.93-1.3s-.78-.44-2.14-.11ZM204.82,63a6,6,0,0,1,3.38-2.18c1.94-.27,2.73.58,5.28.83a8.59,8.59,0,0,1-4.24,3c-2,.61-4.53-.77-4.47-1a1.62,1.62,0,0,1,1.58-1c.9.08,1.09.22,1.8.22a9.55,9.55,0,0,0,2.2-.43,8.46,8.46,0,0,1-2.24.31c-1,0-1.26-.3-1.77-.3s-.68-.06-1.52.6Zm1.9-5.78a6,6,0,0,1,.57-4c1.08-1.64,2.24-1.68,4.1-3.44a8.72,8.72,0,0,1-.51,5.17c-.85,1.9-3.56,2.91-3.73,2.68a1.6,1.6,0,0,1,.27-1.85,16.51,16.51,0,0,0,1.36-1.21,10.59,10.59,0,0,0,1.12-1.94,8.72,8.72,0,0,1-1.24,1.89c-.69.71-1.06.76-1.39,1.14s-.49.47-.55,1.54Zm-8.37,18.37s.27-3.42,2.42-5.23,3.76-1.38,7-3c-.42,2.57-.88,4.63-2.82,6.88s-6.08,2.53-6.22,2.14a2.31,2.31,0,0,1,1.14-2.42c1.16-.59,1.49-.56,2.35-1.1a14.14,14.14,0,0,0,2.34-2.2,12.73,12.73,0,0,1-2.48,2.08c-1.23.69-1.75.6-2.36,1s-.88.45-1.39,1.89Zm-9.52,4.8s4.22-.71,5.47-3.31-.45-4.5.37-8.17c-2.45,1.06-4.38,2-6.14,4.55s-1,6.68-.56,6.72a2.37,2.37,0,0,0,2.12-1.74,26,26,0,0,1,.51-2.62,13.82,13.82,0,0,1,1.6-2.88,13.19,13.19,0,0,0-1.46,3c-.37,1.4-.15,1.9-.38,2.6s-.23,1-1.53,1.86Zm7.06-12.82s3.2-2.38,3.14-5.06-2.29-3.55-3.16-6.94a11.87,11.87,0,0,0-3.16,6.37c-.39,2.82,2,6,2.39,5.82a2.23,2.23,0,0,0,1-2.35c-.31-1.2-.53-1.42-.69-2.38a14.19,14.19,0,0,1,.11-3.07,12.54,12.54,0,0,0,.06,3.1c.29,1.32.68,1.64.79,2.32s.23.91-.49,2.19Zm16.62,7.81s2.94,1.21,4.75.07,1.49-3,3.45-5a9.32,9.32,0,0,0-5.65.45c-2.09.89-3.26,3.83-3,4a1.78,1.78,0,0,0,2-.27,16.84,16.84,0,0,1,1.35-1.45A10.1,10.1,0,0,1,217.57,72a9.27,9.27,0,0,0-2.1,1.31c-.78.73-.84,1.14-1.26,1.49s-.53.53-1.7.57ZM189.87,88.26s1.56,3.68,4.17,4.26,4-1.38,7.49-1.42a11.79,11.79,0,0,0-5.43-4.58c-2.64-1.06-6.27.53-6.22.92a2.23,2.23,0,0,0,2,1.55,22.92,22.92,0,0,1,2.48-.1,13.33,13.33,0,0,1,2.95.84,11.9,11.9,0,0,0-3-.68c-1.35,0-1.75.27-2.44.21s-.94,0-2-1ZM145.23,52.39s-2.47-4.58-1.23-8.63,3.64-4.84,6.43-9.62c1.58,3.6,2.68,6.59,2.07,11s-5.64,8.21-6.14,7.83a3.51,3.51,0,0,1-.54-4,37,37,0,0,0,2.08-3.34A21.38,21.38,0,0,0,149.06,41a19.16,19.16,0,0,1-1.43,4.69c-1,1.89-1.74,2.2-2.2,3.19s-.74,1.29-.2,3.55ZM170.7,91.85s-2.92-4.16-1.78-7.37,4.17-3.38,6.58-7.13c1.14,3,1.93,5.39,1.28,9s-4.81,6.41-5.19,6.08a2.81,2.81,0,0,1-.3-3.24,30.05,30.05,0,0,0,1.78-2.61,17,17,0,0,0,1.09-3.75,15.68,15.68,0,0,1-1.3,3.72C172,88,171.38,88.22,171,89s-.64,1-.28,2.85Zm-61.28-64a15.91,15.91,0,0,1,4.65,5.4,17.22,17.22,0,0,1,2,6l-2.35-.08s.14-4.21-.83-6.28a33.71,33.71,0,0,0-3.42-5.08ZM81.71,76.74a18.48,18.48,0,0,0-4.46-5.95c-3.31-3.08-10.42-5.4-10.42-5.4s7.23,3.56,9.58,6.37a16,16,0,0,1,3.07,5.58l2.23-.6Zm114.56-5.81a30.74,30.74,0,0,1,8.16-10A49.65,49.65,0,0,1,215.06,54s-6.93,4.47-10.05,7.7a70.94,70.94,0,0,0-6.69,8.81l-2,.42ZM168,97.71s11.91-14.14,27.9-18.6,37.94-.37,37.94-.37S214.13,76.32,197,83s-29.39,20.28-29.39,20.28l.37-5.58ZM155,60.23s11.35-17.67,17.67-21.76a31.86,31.86,0,0,1,11.53-4.83,22.11,22.11,0,0,0-10.55,6.09C168.52,44.85,156.84,63,156.84,63L155,60.23Zm-20.64,6.33s-7.53-18.51-19.15-23.25-26.41-2.23-26.41-2.23,17.66-.7,25.66,4.65,17.86,25.1,17.86,25.1l2-4.27Z" transform="translate(59.21 -0.01)"/><path class="cls-11" d="M167.25,227.63a13.77,13.77,0,0,0,4.09,2.65s1.15-.93,3.84-.65,3.11,1.16,5.16,1.39a15.41,15.41,0,0,0,4.51-.37,19,19,0,0,1-4.23.73c-1.29-.09-4.35-1.23-5.42-1.21a17.75,17.75,0,0,0-2.93.53c4.15,1.83,9.18,3.35,10.42,4.83,1.86,2.23,5.39,7.63,5.39,7.63a46.21,46.21,0,0,0-6.07-6.91,10,10,0,0,0-1.94-1.24,9.57,9.57,0,0,0,0,3.9,28.81,28.81,0,0,0,2,4.63,19.83,19.83,0,0,1-2.42-4.51,7.72,7.72,0,0,1-.33-4.37c-4.31-2-11.27-3.83-13.36-6-1.85-2-2.72-5-4-7.37a30.06,30.06,0,0,0-1.43,5.3c-.05,1.39.95,3.21,1.18,5.95a15.66,15.66,0,0,1-.58,5.35,20.87,20.87,0,0,0,.24-5.21,11,11,0,0,0-.53-2.69,5.84,5.84,0,0,0-1.73,1.68,12.66,12.66,0,0,0-.63,3,11.57,11.57,0,0,1,.44-3.21,4.87,4.87,0,0,1,1.77-1.95,15.66,15.66,0,0,1-.77-2.87c-.46-2.84,1.36-6.51,1.36-6.51a5.54,5.54,0,0,0-1.15-1.25c-2.51-2-7.74-3-7.46-3.15a2.9,2.9,0,0,0,.83-1,2,2,0,0,0,.29-1.23,19,19,0,0,1,3.33,1.1h0l.77-.34c1.76-.73,6.05-2.26,8.57-.87,3.23,1.78,3.35,3.42,5.07,4.26a16.36,16.36,0,0,0,4.09,1.16,9.57,9.57,0,0,1-4.25-.75c-1.79-.9-3.79-3.46-5.28-4.11s-5.83-.12-8,1.14h0a12.71,12.71,0,0,1,1.48.9,5.19,5.19,0,0,1,2.3.47,7.76,7.76,0,0,1,2.38,2.12,10.66,10.66,0,0,0-2.44-1.78,6.88,6.88,0,0,0-1.54-.26,6.66,6.66,0,0,1,1.47,1.76c1.95,3.53,2.32,5.95,5.39,9.3Zm-40.72,37.49h0l-.1,0,.1,0Zm26.17-22.89a20.9,20.9,0,0,0,5.11,5.2s-4.14-1.67-5.76-4.74c-.16-.29-.29-.56-.41-.82a9.57,9.57,0,0,0,0,7.21,13.57,13.57,0,0,1-1-4.69c-.09-2.74.55-3.63.55-3.63-.66-1.78-.68-2.78-1.74-3.56a17.83,17.83,0,0,0-4.15-1.79,16.4,16.4,0,0,1,.8,4.31c.1,4.18-5.11,13.39-5.11,18,0,.78,0,1.67.11,2.59a9.82,9.82,0,0,1,3.7,3.19,12.54,12.54,0,0,1,1.54,3.86,13.58,13.58,0,0,0-2.05-3.83,16.3,16.3,0,0,0-3.08-2c.41,4.24,1.27,8.82,1.27,8.82a33,33,0,0,1-2.61-12.65,22.25,22.25,0,0,1,1.08-6.34s-4,2.48-5.12,4.11c-.92,1.29-1.16,3.57-2.59,5.48,0,0,.85,2.77.22,4.58a7.07,7.07,0,0,1-1.86,2.86s1.51-2.09,1.53-3.48a13.45,13.45,0,0,0-.5-3.25,6.85,6.85,0,0,1-.8.69,19.4,19.4,0,0,1-5.29,2.76A15.23,15.23,0,0,0,131.4,262c3.07-2.69,1.72-3.23,3.86-6.95a14.12,14.12,0,0,1,6.25-5.38c1.4-4,3.12-7.51,2.72-9.5-.56-2.8-2.91-8.56-3.25-12.55-1.08.39-3.69,1.45-4.63,2.74-1.18,1.65-1.16,2.89-2.51,5a5.77,5.77,0,0,1-3.46,2.49,12.2,12.2,0,0,0,3-2.61c1.26-1.58,1.3-3.11,2.56-5.16s5-4.21,5-4.21a82.83,82.83,0,0,1,2.75-10.9,10.12,10.12,0,0,0,1.21.85,4.41,4.41,0,0,0,1.2.45c.22.09-3.11,5.56-3,10.21a23.34,23.34,0,0,0,1.43,6.66,20,20,0,0,1,5.36,3.29c2.23,2,1.11,3.07,2.79,5.86Zm-12.49-29.92a5.78,5.78,0,0,0,.54.41,3.59,3.59,0,0,0,.73.32c.12.05-6.64,2.18-7.43,4.73a19,19,0,0,1-4.23,6.95,16.83,16.83,0,0,1-3,2.13,11.64,11.64,0,0,1-.57,4.91,19.62,19.62,0,0,1-3,4.51,13.49,13.49,0,0,0,2.44-4.62,15.49,15.49,0,0,0,.47-4.4c-2.33,1.33-4.94,2.62-5.72,3.05a15.36,15.36,0,0,0-3,2.54,22,22,0,0,1,2.7-2.79c.83-.56,6.41-3,9.3-5.77s2.88-4.74,3.72-7.07,7.13-4.9,7.13-4.9Z" transform="translate(59.21 -0.01)"/></g></g></g></svg>