<svg xmlns="http://www.w3.org/2000/svg" viewBox="0 0 419.22 798.24"><defs><style>.cls-1,.cls-2{fill:#ffffff;}.cls-2{font-size:80px;font-family:MartianBThai-SemiBold, Martian B Thai;font-weight:600;}.cls-3{letter-spacing:-0.01em;}.cls-4{letter-spacing:0em;}.cls-5{letter-spacing:-0.02em;}.cls-6{letter-spacing:-0.02em;}</style></defs><title>Asset 1</title><g id="Layer_2" data-name="Layer 2"><g id="Layer_1-2" data-name="Layer 1"><path class="cls-1" d="M334,487.58H221.8a36.67,36.67,0,0,0,10.07-25.18c0-16.67-11.88-34.21-34.15-39.16a33.54,33.54,0,0,0,9.43-23.33c0-.16,0-.33,0-.5a66.3,66.3,0,0,0,22.35-22h4.66a8.77,8.77,0,0,0,2.78-17.08,65.54,65.54,0,0,0,2.11-12h8.52a8.77,8.77,0,0,0,0-17.53h-8.28V280.45c1.39-1.77,8.12-4.63,13.08-6.74C277.6,263,324.59,243,324.59,151.07,324.59,67.77,256.82,0,173.52,0S22.45,67.77,22.45,151.07c0,93.26,51.58,116.14,76.37,127.13,3.18,1.41,7,3.1,8.94,4.28V330.8H99.48a8.77,8.77,0,1,0,0,17.53H108a64.7,64.7,0,0,0,2.11,12,8.77,8.77,0,0,0,2.78,17.08h4.65a66.42,66.42,0,0,0,22.36,22c0,.17,0,.34,0,.5A33.38,33.38,0,0,0,142,411.57a36.74,36.74,0,0,0,7.23,12.83c7.75,8.92,19.52,14,35,15h.58c19.21,0,29.57,11.85,29.57,23,0,6.18-3.11,12-8.75,16.32-7.53,5.8-19.11,8.86-33.48,8.86H8.77A8.77,8.77,0,0,0,0,496.35v88.22c0,66.31,46.75,120.25,104.22,120.25H238.53c33.86,0,64-18.72,83-47.67A85.24,85.24,0,1,0,334,487.58Zm-146-80.49a16.1,16.1,0,0,1-28.82,0l.39.07c.79.17,1.58.33,2.38.47l1.11.2c.82.13,1.65.24,2.48.34l1,.13c1,.1,2,.18,3,.25l.46,0c1.19.06,2.38.1,3.59.1s2.4,0,3.59-.1l.46,0c1-.06,2-.14,3-.24l1-.13c.83-.1,1.66-.21,2.48-.34l1.11-.2c.8-.14,1.59-.3,2.38-.47Zm-82-144.91C82.88,252,40,232.93,40,151.07,40,77.44,99.89,17.53,173.52,17.53S307.05,77.44,307.05,151.07c0,80.36-37,96.09-61.54,106.5-12.27,5.21-23.87,10.14-23.76,22.74v22.18h-13c-3-26.23-4.67-63.47-1.21-91.57a86.12,86.12,0,0,0,22-8.35c13.22-7.45,20.8-17.7,20.8-28.13,0-9.61-7.42-19.95-23.7-19.95-8.08,0-15.35,3.41-21,9.86-6.1,6.91-10.58,17.39-13.48,31.64a157.14,157.14,0,0,1-37.27.14c-2.74-13.39-7-24.86-13.51-32.14-5.53-6.21-12.56-9.5-20.32-9.5-16.67,0-24.26,10.61-24.26,20.46,0,10.39,7.43,20.55,20.39,27.86a85,85,0,0,0,22.39,8.39c3.47,28,2.1,65.07-.69,91.29H125.29V280.44C125.53,270.87,116.44,266.84,105.93,262.18ZM157.53,214c4.91.44,10,.67,15.35.67q8.63,0,16.57-.78a338.22,338.22,0,0,0-1.39,35.52c.18,22.81,2.05,43.42,3.07,53.05H156.44C158,287.14,161.16,248,157.53,214Zm53.7-22.43c1.91-6.71,4.37-12.12,7.49-15.65,2.39-2.71,4.82-3.92,7.89-3.92.25,0,6.17,0,6.17,2.41,0,2.13-2.49,7.56-11.88,12.85A59.68,59.68,0,0,1,211.23,191.6Zm-75.32.4a58.66,58.66,0,0,1-10.17-4.46c-7.89-4.45-11.48-9.64-11.48-12.59s6-2.92,6.73-2.92c1.86,0,4.37.41,7.23,3.62C131.43,179.25,134,184.92,135.91,192ZM125.29,320h96.46V330.8H125.29Zm96.15,28.31a48.19,48.19,0,0,1-2.77,11.53h-90.3a47.72,47.72,0,0,1-2.77-11.53ZM207.2,377.39a48.23,48.23,0,0,1-12.67,8.93l-.51.21a48.41,48.41,0,0,1-7.4,2.8l-.08,0c-.74.21-1.48.39-2.23.57l-.47.11-1.88.36c-.25.05-.49.1-.74.13-.56.1-1.13.17-1.7.24l-.87.11c-.57.06-1.15.1-1.73.14l-.83.07c-.85,0-1.71.07-2.57.07s-1.72,0-2.57-.07l-.84-.07c-.57,0-1.15-.08-1.72-.14l-.88-.11c-.57-.07-1.13-.14-1.69-.23l-.75-.14q-.93-.17-1.86-.36l-.49-.12c-.74-.17-1.48-.35-2.21-.56l-.1,0a48.25,48.25,0,0,1-7.39-2.79l-.51-.21a48.07,48.07,0,0,1-12.67-8.93ZM342.75,543.57c15.45,2.47,23,12.11,23,29.25,0,13.32-4.47,28.94-24.48,31.95a138.29,138.29,0,0,0,1.48-20.2ZM238.53,687.29H104.22c-47.8,0-86.69-46.08-86.69-102.72V505.11H325.22v79.46A118.51,118.51,0,0,1,317.85,626c-.11.23-.23.46-.33.7A108.83,108.83,0,0,1,309.68,643a7.71,7.71,0,0,0-.53,1.08C293.41,670.22,267.62,687.29,238.53,687.29ZM334,640.52c-1.06,0-2.13,0-3.19-.07q1.15-2.52,2.2-5.1c2.48-2.82,3.92-7,5.11-10.43.22-.64.51-1.46.8-2.26,32.61-2.23,44.38-26.79,44.38-49.84,0-13-3.6-24.1-10.4-32.15-7.06-8.35-17.17-13.31-30.13-14.8V505.68A67.7,67.7,0,0,1,334,640.52Z"/><path class="cls-1" d="M255,659.09c-4.2,3.24-8.44,4-15.64,3a8.77,8.77,0,1,0-2.52,17.35,53.4,53.4,0,0,0,7.76.62,33.48,33.48,0,0,0,21.1-7.08,8.77,8.77,0,0,0-10.7-13.9Z"/><path class="cls-1" d="M299.44,605.8a8.79,8.79,0,0,0-9.33,8.17c-1.2,17.94-9.64,28.47-17,30.66a8.77,8.77,0,1,0,5,16.8c16.35-4.87,27.92-23,29.47-46.29A8.78,8.78,0,0,0,299.44,605.8Z"/><path class="cls-1" d="M45,587.56v-37a8.77,8.77,0,0,0-17.53,0v37c0,4.47.53,27.28,11.08,37.05a8.77,8.77,0,0,0,11.92-12.86C47.19,608.74,45,596.81,45,587.56Z"/><path class="cls-1" d="M36.2,535.39A8.77,8.77,0,0,0,45,526.62v-7.28a8.77,8.77,0,1,0-17.53,0v7.28A8.77,8.77,0,0,0,36.2,535.39Z"/><path class="cls-1" d="M222.37,247.89a8.77,8.77,0,0,0,8.51,6.71,8.68,8.68,0,0,0,2.07-.25c17.5-4.23,35.33-18.26,48.93-38.49,13.2-19.64,19-40.07,15.45-54.65a8.77,8.77,0,1,0-17,4.12c2.28,9.44-2.93,25.82-13,40.75-11,16.39-25.41,28.06-38.5,31.23A8.76,8.76,0,0,0,222.37,247.89Z"/><path class="cls-1" d="M127.81,56.37a8.77,8.77,0,0,0,0-17.53c-16.25,0-35.72,15.37-48.53,29.76-17.74,19.92-27.91,42.92-27.91,63.11a8.77,8.77,0,0,0,17.54,0c0-15.94,8.55-34.7,23.46-51.45C106.19,64.74,120.94,56.37,127.81,56.37Z"/><path class="cls-1" d="M152.43,50.06c7.9-1.36,17.27-1.68,19.63-.69a8.77,8.77,0,0,0,7.39-15.9c-8.5-3.95-25.09-1.53-30-.7a8.77,8.77,0,0,0,3,17.29Z"/><text class="cls-2" transform="translate(2.03 775.84)">Sm<tspan class="cls-3" x="119.44" y="0">a</tspan><tspan class="cls-4" x="162.48" y="0">rt </tspan><tspan class="cls-5" x="260.56" y="0">D</tspan><tspan class="cls-6" x="315.44" y="0">e</tspan><tspan x="361.2" y="0">v</tspan></text></g></g></svg>